<?xml version="1.0" encoding="UTF-8" standalone="no"?>
<!-- Generator: Adobe Illustrator 14.0.0, SVG Export Plug-In . SVG Version: 6.00 Build 43363)  -->

<svg
   xmlns:dc="http://purl.org/dc/elements/1.1/"
   xmlns:cc="http://creativecommons.org/ns#"
   xmlns:rdf="http://www.w3.org/1999/02/22-rdf-syntax-ns#"
   xmlns:svg="http://www.w3.org/2000/svg"
   xmlns="http://www.w3.org/2000/svg"
   xmlns:sodipodi="http://sodipodi.sourceforge.net/DTD/sodipodi-0.dtd"
   xmlns:inkscape="http://www.inkscape.org/namespaces/inkscape"
   version="1.2"
   id="svg2"
   x="0px"
   y="0px"
   width="950px"
   height="620px"
   viewBox="0 0 950 620"
   xml:space="preserve"
   inkscape:version="0.47pre4 r22446"
   sodipodi:docname="world-small.svg"><metadata
   id="metadata344"><rdf:RDF><cc:Work
       rdf:about=""><dc:format>image/svg+xml</dc:format><dc:type
         rdf:resource="http://purl.org/dc/dcmitype/StillImage" /></cc:Work></rdf:RDF></metadata><defs
   id="defs342"><inkscape:perspective
     sodipodi:type="inkscape:persp3d"
     inkscape:vp_x="0 : 310 : 1"
     inkscape:vp_y="0 : 1000 : 0"
     inkscape:vp_z="950 : 310 : 1"
     inkscape:persp3d-origin="475 : 206.66667 : 1"
     id="perspective346" /></defs><sodipodi:namedview
   pagecolor="#ffffff"
   bordercolor="#666666"
   borderopacity="1"
   objecttolerance="10"
   gridtolerance="10"
   guidetolerance="10"
   inkscape:pageopacity="0"
   inkscape:pageshadow="2"
   inkscape:window-width="1600"
   inkscape:window-height="832"
   id="namedview340"
   showgrid="false"
   inkscape:zoom="4.3065084"
   inkscape:cx="540.58025"
   inkscape:cy="314.04107"
   inkscape:window-x="0"
   inkscape:window-y="0"
   inkscape:window-maximized="1"
   inkscape:current-layer="svg2" />
<path
   style="fill:#cccccc"
   d="M 722.46875 317.5625 L 722.1875 319.84375 L 729 331.25 L 730.96875 331.25 L 745.125 354.9375 L 750.78125 355.5 L 753.625 347.21875 L 749.09375 344.375 L 748.21875 339.8125 L 722.46875 317.5625 z M 785.65625 324 L 781.6875 324.40625 L 779.375 333.09375 L 766.84375 337.3125 L 763.09375 332.90625 L 761.28125 333.40625 L 764.65625 346.53125 L 769.75 347.09375 L 776.5625 349.65625 L 776.5625 352.25 L 779.65625 351.65625 L 784.1875 345.40625 L 784.1875 340.28125 L 786.75 335.125 L 789.5625 335.71875 L 786.15625 328.59375 L 785.65625 324 z M 814.1875 330.5 L 812.3125 335.0625 L 815.28125 338.90625 L 816.25 338.90625 L 817.53125 336.34375 L 818.21875 335.4375 L 816.9375 334.0625 L 815.0625 333.375 L 814.1875 330.5 z M 808.03125 331.5625 L 804.1875 334.53125 L 801.71875 334.53125 L 798 332.75 L 795.34375 332.875 L 792.40625 337.625 L 790.53125 345.84375 L 789.53125 349.125 L 791.78125 351.875 L 790.3125 356.03125 L 790.3125 356.84375 L 793.65625 356.84375 L 794.84375 346.4375 L 795.90625 346.71875 L 797.875 356.21875 L 799.75 356.71875 L 801.53125 352.65625 L 799.75 346.53125 L 798.28125 343.875 L 802.90625 340.5 L 801.8125 339 L 797.40625 341.875 L 796.21875 341.875 L 794.0625 338.6875 L 794.75 337.3125 L 798.375 335.53125 L 803.875 337.21875 L 805.5625 337.125 L 809.6875 333.25 L 808.03125 331.5625 z M 831.9375 339.34375 L 827.75 339.8125 L 825.09375 341.78125 L 826.1875 344 L 830.71875 344.84375 L 830.71875 345.6875 L 827.875 348.03125 L 829.25 352.875 L 830.625 352.96875 L 831.84375 348.1875 L 834.0625 348.1875 L 835 352.875 L 845.8125 361.8125 L 846.09375 368.8125 L 849.8125 372.84375 L 851.46875 372.75 L 851.84375 348.03125 L 845.5625 343.625 L 839.625 347.65625 L 837.5 348.96875 L 833.96875 346.71875 L 833.875 339.625 L 831.9375 339.34375 z M 820 345.4375 L 815.96875 346.34375 L 814.78125 347.625 L 815.75 349.3125 L 818.40625 348.3125 L 820.09375 347.34375 L 822.53125 349.3125 L 823.625 348.40625 L 821.65625 346.03125 L 820 345.4375 z M 753.15625 358.3125 L 750.40625 360.1875 L 751 361.78125 L 759.75 363.75 L 764.1875 364.5625 L 766.0625 366.53125 L 771.0625 366.9375 L 773.40625 368.90625 L 775.59375 368.40625 L 777.5625 366.625 L 773.90625 364.9375 L 770.78125 362.28125 L 762.625 360.3125 L 753.15625 358.3125 z M 788.0625 365.9375 L 785.5 366.03125 L 785.875 367.90625 L 788.15625 368.5 L 789.03125 367.40625 L 788.0625 365.9375 z M 781.78125 366.9375 L 779.625 368.125 L 780.875 369.5 L 784.03125 368.3125 L 781.78125 366.9375 z M 792.6875 366.9375 L 791.6875 367.71875 L 791.09375 368.90625 L 795.53125 369.59375 L 798.96875 367.625 L 797 367.03125 L 793.875 367.90625 L 792.6875 366.9375 z M 806.125 368.40625 L 801.03125 372.6875 L 801.53125 373.78125 L 803.6875 373.375 L 806.21875 371 L 811.25 370.3125 L 810.25 368.625 L 806.125 368.40625 z M 790.90625 371 L 788.15625 371.375 L 790.625 373.46875 L 792.59375 373.46875 L 790.90625 371 z "
   id="id"
   inkscape:label="#path2374"><title
     id="title3926">Indonesia</title></path>
<path
   id="pg"
   d="M852.76,348.29l-0.37,24.44l3.52-0.19l4.63-5.41l3.89,0.19l2.5,2.24l0.83,6.9l7.96,4.2l2.04-0.75v-2.52l-6.39-5.32l-3.15-7.28l2.5-1.21l-1.85-4.01l-3.7-0.09l-0.93-4.29l-9.81-6.62L852.76,348.29L852.76,348.29z"
   style="fill:#cccccc"
   inkscape:label="#path4385" />
<path
   id="mx"
   d="M137.49,225.43l4.83,15.21l-2.25,1.26l0.25,3.02l4.25,3.27v6.05l5.25,5.04l-2.25-14.86l-3-9.83l0.75-6.8l2.5,0.25l1,2.27l-1,5.79l13,25.44v9.07l10.5,12.34l11.5,5.29l4.75-2.77l6.75,5.54l4-4.03l-1.75-4.54l5.75-1.76l1.75,1.01l1.75-1.76h2.75l5-8.82l-2.5-2.27l-9.75,2.27l-2.25,6.55l-5.75,1.01l-6.75-2.77l-3-9.57l2.27-12.07l-4.64-2.89l-2.21-11.59l-1.85-0.79l-3.38,3.43l-3.88-2.07l-1.52-7.73l-15.37-1.61l-7.94-5.97L137.49,225.43L137.49,225.43z"
   inkscape:label="#path19128"
   style="fill:#cccccc" />
<path
   style="fill:#cccccc"
   d="M 512.15625 143.46875 L 508.625 145.625 L 508.5625 147.25 L 510.875 149.40625 L 518.03125 150.625 L 517.78125 143.65625 L 512.15625 143.46875 z M 505.21875 147.59375 L 504.3125 148.5 L 504.96875 149.46875 L 506.5 149.5625 L 507.3125 148.40625 L 506.75 147.625 L 505.21875 147.59375 z "
   id="ee" />
<path
   id="dz"
   d="M473.88,227.49l-4.08-1.37l-16.98,3.19l-3.7,2.81l2.26,11.67l-6.75,0.27l-4.06,6.53l-9.67,2.32l0.03,4.75l31.85,24.35l5.43,0.46l18.11-14.15l-1.81-2.28l-3.4-0.46l-2.04-3.42v-14.15l-1.36-1.37l0.23-3.65l-3.62-3.65l-0.45-3.88l1.58-1.14l-0.68-4.11L473.88,227.49L473.88,227.49z"
   style="fill:#cccccc"
   inkscape:label="#path1298" />
<path
   id="ma"
   d="M448.29,232.28h-11.55l-2.26,5.02l-5.21,2.51l-4.3,11.64l-8.38,5.02l-11.77,19.39l11.55-0.23l0.45-5.7h2.94v-7.76h10.19l0.23-10.04l9.74-2.28l4.08-6.62l6.34-0.23L448.29,232.28L448.29,232.28z"
   inkscape:label="#path1300"
   style="fill:#cccccc" />
<path
   id="mr"
   d="M404.9,276.66l2.18,2.85l-0.45,12.32l3.17-2.28l2.26-0.46l3.17,1.14l3.62,5.02l3.4-2.28l16.53-0.23l-4.08-27.61l4.38-0.02l-8.16-6.25l0.01,4.06l-10.33,0.01l-0.05,7.75l-2.97-0.01l-0.38,5.72L404.9,276.66L404.9,276.66z"
   style="fill:#cccccc"
   inkscape:label="#path1307" />
<path
   id="path1309"
   d="M410.12,290.32l-3.94,2.86l-0.9,1.6l-0.28,1.6l1.45,1.04l4.84-0.07l3.11-0.84l0.35,1.53l-0.28,2.02l2.97,1.46l0.62,0.7l3.94,0.14l0.14-1.74l-3.6-4.32l-4.01-5.43l-2.49-1.04L410.12,290.32L410.12,290.32z"
   style="fill:#cccccc" />
<path
   id="path1311"
   d="M406.89,298.34l-0.13,1.11l6.92-0.1l0.35-1.03l-0.15-1.04l-1.99,0.81L406.89,298.34L406.89,298.34z"
   style="fill:#cccccc" />
<path
   id="path1313"
   d="M406.79,300.22l1.24,3.01l0.69-1.86l8.41,0.88l-3.64-1.87L406.79,300.22L406.79,300.22z"
   style="fill:#cccccc" />
<path
   id="path1315"
   d="M408.6,304.53l1.4,2.77l3.93-3.38l0.04-1.04l-4.63-0.67L408.6,304.53L408.6,304.53z"
   style="fill:#cccccc" />
<path
   id="path1317"
   d="M410.42,307.94l3.04,4.68l3.96-3.44l4.06-0.18l3.38,4.49l2.87,1.89l1.08-2.1l0.96-0.54l-0.07-4.62l-1.91-5.48l-5.86,0.65l-7.25-0.58l-0.04,1.86L410.42,307.94L410.42,307.94z"
   style="fill:#cccccc" />
<path
   id="sl"
   d="M413.93,313.13l5.65,5.46l4.03-4.89l-2.52-3.95l-3.47,0.35L413.93,313.13L413.93,313.13z"
   style="fill:#cccccc"
   inkscape:label="#path1319" />
<path
   id="path1321"
   d="M420.17,319.19l10.98,7.34l-0.26-5.56l-3.32-3.91l-3.24-2.87L420.17,319.19L420.17,319.19z"
   style="fill:#cccccc" />
<path
   id="path1323"
   d="M432.07,326.75l4.28-3.03l5.32-0.93l5.43,1.17l-2.77-4.19l-0.81-2.56l0.81-7.57l-4.85,0.23l-2.2-2.1l-4.62,0.12l-2.2,0.35l0.23,5.12l-1.16,0.47l-1.39,2.56l3.58,4.19L432.07,326.75L432.07,326.75z"
   style="fill:#cccccc" />
<path
   id="ml"
   d="M419.46,295.84l3.08-2.11l17.12-0.1l-3.96-27.54l4.52-0.13l21.87,16.69l2.94,0.42l-1.11,9.28l-13.75,1.25l-10.61,7.92l-1.93,5.42l-7.37,0.31l-1.88-5.41l-5.65,0.4l0.22-1.77L419.46,295.84L419.46,295.84z"
   style="fill:#cccccc"
   inkscape:label="#path2083" />
<path
   id="bf"
   d="M450.59,294.28l3.64-0.29l5.97,8.44l-5.54,4.18l-4.01-1.03l-5.39,0.07l-0.87,3.16l-4.52,0.22l-1.24-1.69l1.6-5.14L450.59,294.28L450.59,294.28z"
   style="fill:#cccccc"
   inkscape:label="#path2843" />
<path
   id="ng"
   d="M460.89,302l2.55-0.06l2.3-3.45l3.86-0.69l4.11,2.51l8.77,0.25l6.78-2.76l2.55-2.19l0.19-2.88l4.73-4.77l1.25-10.53l-3.11-6.52l-7.96-1.94l-18.42,14.36l-2.61-0.25l-1.12,9.97l-9.4,0.94L460.89,302L460.89,302z"
   style="fill:#cccccc"
   inkscape:label="#path3603" />
<path
   id="path4363"
   d="M444.34,317.05l1.12,2.63l2.92,4.58l1.62-0.06l4.42-2.51l-0.31-14.29l-3.42-1l-4.79,0.13L444.34,317.05L444.34,317.05z"
   style="fill:#cccccc" />
<path
   id="path5123"
   d="M455.22,321.25l2.68-1.57l-0.06-10.35l-1.74-2.82l-1.12,0.94L455.22,321.25L455.22,321.25z"
   style="fill:#cccccc" />
<path
   id="path5883"
   d="M458.71,319.49h2.12l0.12-6.02l2.68-3.89l-0.12-6.77l-2.43-0.06l-4.17,3.26l1.74,3.32L458.71,319.49L458.71,319.49z"
   style="fill:#cccccc" />
<path
   id="ne"
   d="M461.57,319.37l3.92,0.19l4.73,5.27l2.3,0.63l1.8-0.88l2.74-0.38l0.93-3.82l3.73-2.45l4.04-0.19l7.4-13.61l-0.12-3.07l-3.42-2.63l-6.84,3.01l-9.15-0.13l-4.36-2.76l-3.11,0.69l-1.62,2.82l-0.12,7.96l-2.61,3.7L461.57,319.37L461.57,319.37z"
   style="fill:#cccccc"
   inkscape:label="#path6643" />
<path
   id="tn"
   d="M474.91,227.33l5.53-2.23l1.82,1.18l0.07,1.44l-0.85,1.11l0.13,1.97l0.85,0.46v3.54l-0.98,1.64l0.13,1.05l3.71,1.31l-2.99,4.65l-1.17-0.07l-0.2,3.74l-1.3,0.2l-1.11-0.98l0.26-3.8l-3.64-3.54l-0.46-3.08l1.76-1.38L474.91,227.33L474.91,227.33z"
   style="fill:#cccccc"
   inkscape:label="#path6647" />
<path
   id="ly"
   d="M480.05,248.03l1.56-0.26l0.46-3.6h0.78l3.19-5.24l7.87,2.29l2.15,3.34l7.74,3.54l4.03-1.7l-0.39-1.7l-1.76-1.7l0.2-1.18l2.86-2.42h5.66l2.15,2.88l4.55,0.66l0.59,36.89l-3.38-0.13l-20.42-10.62l-2.21,1.25l-8.39-2.1l-2.28-3.01l-3.32-0.46l-1.69-3.01L480.05,248.03L480.05,248.03z"
   style="fill:#cccccc"
   inkscape:label="#path7407" />
<path
   id="eg"
   d="m 521.93,243.06 2.67,0.07 5.2,1.44 2.47,0.07 3.06,-2.56 h 1.43 l 2.6,1.44 h 3.29 l 0.59,-0.04 2.08,5.98 0.59,1.93 0.55,2.89 -0.98,0.72 -1.69,-0.85 -1.95,-6.36 -1.76,-0.13 -0.13,2.16 1.17,3.74 9.37,11.6 0.2,4.98 -2.73,3.15 -25.64,-0.29 -0.39,-29.94 0,0 z"
   inkscape:label="#path7409"
   style="fill:#cccccc" />
<path
   id="path7411"
   d="M492.79,296l0.13-2.95l4.74-4.61l1.27-11.32l-3.16-6.04l2.21-1.13l21.4,11.15l-0.13,10.94l-3.77,3.21v5.64l2.47,4.78h-4.36l-7.22,7.14l-0.19,2.16l-5.33-0.07l-0.07,0.98l-3.04-0.4l-2.08-3.93l-1.56-0.77l0.2-1.2l1.96-1.5v-7.02l-2.71-0.42l-3.27-2.43L492.79,296L492.79,296L492.79,296z"
   style="fill:#cccccc" />
<path
   id="su"
   d="M520.15,292.43l0.18-11.83l2.46,0.07l-0.28-6.57l25.8,0.23l3.69-3.72l7.96,12.73l-4.36,5.14v7.85l-6.86,14.75l-2.36,1.04l0.75,4.11h2.94l3.99,5.79l-3.2,0.41l-0.82,1.49l-0.08,2.15l-9.6-0.17l-0.98-1.49l-6.71-0.38l-12.32-12.68l1.23-0.74l0.33-2.98l-2.95-1.74l-2.69-5.31l0.15-4.94L520.15,292.43L520.15,292.43z"
   inkscape:label="#path8171"
   style="fill:#cccccc" />
<path
   id="path11979"
   d="M477.82,324.28l3.22,2.96l-0.23,4.58l17.66-0.41l1.44-1.62l-5.06-5.45l-0.75-1.97l3.22-6.03l-2.19-4l-1.84-0.99v-2.03l2.13-1.39l0.12-6.32l-1.69-0.19l-0.03,3.32l-7.42,13.85l-4.54,0.23l-3.11,2.14L477.82,324.28L477.82,324.28z"
   style="fill:#cccccc" />
<path
   id="er"
   d="M556.71,294.7l-0.25-5.89l3.96-4.62l1.07,0.82l1.95,6.52l9.36,6.97l-1.7,2.09l-6.85-5.89H556.71L556.71,294.7z"
   style="fill:#cccccc"
   inkscape:label="#path8177" />
<path
   id="dj"
   d="M571.48,301.54l-0.57,3.36l3.96-0.06l0.06-4.94l-1.45-0.89L571.48,301.54L571.48,301.54z"
   style="fill:#cccccc"
   inkscape:label="#path8179" />
<path
   id="path8939"
   d="M549.49,311.76l7.28-16.2l7.23,0.04l6.41,5.57l-0.45,4.59h4.97l0.51,2.76l8.04,4.81l4.96,0.25l-9.43,10.13l-12.95,3.99h-3.21l-5.72-4.88l-2.26-0.95l-4.38-6.45l-2.89,0.04l-0.34-2.96L549.49,311.76L549.49,311.76z"
   style="fill:#cccccc" />
<path
   id="path9699"
   d="M575.74,305.04l4.08,2.78l1.21-0.06l10.13-3.48l1.15,3.71l-0.81,3.13l-2.19,1.74l-5.47-0.35l-7.83-4.81L575.74,305.04L575.74,305.04z"
   style="fill:#cccccc" />
<path
   id="path10459"
   d="M599.62,299.65l2.13,2.38l2.88-1.74l1.04-0.35l-1.32-1.28l-2.53,0.75L599.62,299.65L599.62,299.65z"
   style="fill:#cccccc" />
<path
   id="so"
   d="M591.97,304.05l4.37-1.68l1.55,0.93l-0.17,3.88l-4.03,11.48l-21.81,23.36l-2.53-1.74l-0.17-9.86l3.28-3.77l6.96-2.15l10.21-10.78l2.67-2.38l0.75-3.48L591.97,304.05L591.97,304.05z"
   style="fill:#cccccc"
   inkscape:label="#path11219" />
<path
   id="path11981"
   d="M495.66,324.05l4.66,5.04l1.84-2.38l2.93,0.12l0.63-2.32l2.88-1.8l5.98,4.12l3.45-3.42l13.39,0.59L519,311.18l1.67-1.04l0.23-2.26l-2.82-1.33h-4.14l-6.67,6.61l-0.23,2.72l-5.29-0.17l-0.17,1.16l-3.45-0.35l-3.11,5.91L495.66,324.05L495.66,324.05z"
   style="fill:#cccccc" />
<path
   id="path11983"
   d="M470.74,337.15l1.15-0.58l0.86,0.7l-0.86,1.33l-1.04-0.41L470.74,337.15L470.74,337.15z"
   style="fill:#cccccc" />
<path
   id="path11985"
   d="M473.05,333.5l1.73-0.29l0.58,1.1l-0.86,0.93l-0.86-0.12L473.05,333.5L473.05,333.5z"
   style="fill:#cccccc" />
<path
   id="path11987"
   d="M476.84,327.41l-0.46,1.97l1.38,0.75l1.32-0.99l-0.46-2.03L476.84,327.41L476.84,327.41z"
   style="fill:#cccccc" />
<path
   id="path11989"
   d="M486.39,332.63l-0.12,2.49l-5.64-0.12l-3.45,6.67l8.11,8.87l2.01-1.68l-0.06-1.74l-1.38-0.64v-1.22l3.11-1.97l2.76,2.09l3.05,0.06l-0.06-10.49l-4.83-0.23l-0.06-2.2L486.39,332.63L486.39,332.63z"
   style="fill:#cccccc" />
<path
   id="path11991"
   d="M480.99,332.69l-0.06,1.39l4.54,0.23l-0.06-1.57L480.99,332.69L480.99,332.69z"
   style="fill:#cccccc" />
<path
   id="path11993"
   d="M491,332.52l-0.06,1.45l4.78,0.12l0.17,12.41l-4.37-0.12l-2.53-1.97l-1.96,1.1l-0.09,0.55l1.01,0.49l0.29,2.55l-2.7,2.32l0.58,1.22l2.99-2.32h1.44l0.46,1.39l1.9,0.81l6.1-5.16l-0.12-3.77l1.27-3.07l3.91-2.9l1.05-9.81l-2.78,0.01l-3.22,4.41L491,332.52L491,332.52z"
   style="fill:#cccccc" />
<path
   id="path12753"
   d="M486.55,353.23l1.74,2.26l2.25-2.13l-0.66-2.21l-0.56-0.04L486.55,353.23L486.55,353.23z"
   style="fill:#cccccc" />
<path
   id="cd"
   d="M489.38,355.71l10.31-0.18l2.09,2.97l-0.08,2.19l0.77,0.7h5.12l1.47-2.89h2.09l0.85,0.86l2.87-0.08l0.85,10.08l4.96,0.16v0.78l13.33,6.01l0.62,1.17h2.79l-0.31-4.22l-5.04-2.42l0.31-3.2l2.17-5.08l4.96-0.16l-4.26-14.14l0.08-6.01l6.74-10.54l0.08-1.48l-1.01-0.55l0.04-2.86l-1.23-0.11l-1.24-1.58l-20.35-0.92l-3.73,3.63l-6.11-4.02l-2.15,1.32l-1.56,13.13l-3.86,2.98l-1.16,2.64l0.21,3.91l-6.96,5.69l-1.85-0.84l0.25,1.09L489.38,355.71L489.38,355.71z"
   inkscape:label="#path13513"
   style="fill:#cccccc" />
<path
   id="path13515"
   d="M537.82,339.9l2.81,2.59l-0.12,2.77l-4.36,0.09v-3.06L537.82,339.9L537.82,339.9z"
   style="fill:#cccccc" />
<path
   id="path13517"
   d="M536.21,346.21l4.27-0.09l-1.11,3.74l-1.08,0.94h-1.32l-0.94-2.53L536.21,346.21L536.21,346.21z"
   style="fill:#cccccc" />
<path
   id="path14277"
   d="M538.3,339.09l3.03,2.84l1.9-1.21l5.14-0.84l0.88,0.09l0.33-1.95l2.9-6.1l-2.44-5.08l-7.91,0.05l-0.05,2.09l1.06,1.02l-0.16,2.09L538.3,339.09L538.3,339.09z"
   style="fill:#cccccc" />
<path
   id="ke"
   d="M550.83,326.52l2.66,5.19l-3.19,6.69l-0.42,2.03l15.93,9.85l4.94-7.76l-2.5-2.03l-0.05-10.22l3.13-3.42l-4.99,1.66l-3.77,0.05l-5.9-4.98l-1.86-0.8l-3.45,0.32l-0.61,1.02L550.83,326.52L550.83,326.52z"
   style="fill:#cccccc"
   inkscape:label="#path14279" />
<path
   id="tz"
   d="M550.57,371.42l17.47-2.14l-3.93-7.6l-0.21-7.28l1.27-3.48l-16.62-10.44l-5.21,0.86l-1.81,1.34l-0.16,3.05l-1.17,4.23l-1.22,1.45l-1.75,0.16l3.35,11.61l5.47,2.57l3.77,0.11L550.57,371.42L550.57,371.42z"
   style="fill:#cccccc"
   inkscape:label="#path15039" />
<path
   id="zm"
   d="M514.55,384.7l3.17,4.4l4.91,0.3l1.74,0.96l5.14,0.06l4.43-6.21l12.38-5.54l1.08-4.88l-1.44-6.99l-6.46-3.68l-4.31,0.3l-2.15,4.76l0.06,2.17l5.08,2.47l0.3,5.37l-4.37,0.24l-1.08-1.81l-12.14-5.18l-0.36,3.98l-5.74,0.18L514.55,384.7L514.55,384.7z"
   style="fill:#cccccc"
   inkscape:label="#path16569" />
<path
   id="path15809"
   d="M488.62,356.71l3.41,12.73l-0.08,4.02l-4.99,5.36l-0.75,8.71l19.2,0.17l6.24,2.26l5.15-0.67l-3-3.76l0.01-10.74l5.9-0.25v-4.19l-4.79-0.2l-0.96-9.92l-2.02,0.03l-1.09-0.98l-1.19,0.06l-1.58,3.06H502l-1.41-1.42l0.42-2.01l-1.66-2.43L488.62,356.71L488.62,356.71z"
   style="fill:#cccccc" />
<path
   id="path18089"
   d="M547.16,379.4l3.11,3.25l-0.06,4.16l0.6,1.75l4.13-4.46l-0.48-5.67l-2.21-1.69l-1.97-9.95l-3.41-0.12l1.55,7.17L547.16,379.4L547.16,379.4z"
   style="fill:#cccccc" />
<path
   id="mz"
   d="M541.17,413.28l2.69,2.23l6.34-3.86l1.02-5.73v-9.46l10.17-8.32l1.74,0.06l6.16-5.91l-0.96-12.18L552,372.17l0.48,3.68l2.81,2.17l0.66,6.63l-5.5,5.37l-1.32-3.01l0.24-3.98l-3.17-3.44l-7.78,3.62l7.24,3.68l0.24,10.73l-4.79,7.11L541.17,413.28L541.17,413.28z"
   style="fill:#cccccc"
   inkscape:label="#path18849" />
<path
   id="zw"
   d="M524.66,392.3l8.97,10.13l6.88,1.75l4.61-7.23l-0.36-9.58l-7.48-3.86l-2.81,1.27l-4.19,6.39l-5.8-0.06L524.66,392.3L524.66,392.3z"
   style="fill:#cccccc"
   inkscape:label="#path19609" />
<path
   id="na"
   d="M496.55,421.96l3.35,0.24l1.97,1.99l4.67,0.06l1.14-13.26v-8.68l2.99-0.6l1.14-9.1l7.6-0.24l2.69-2.23l-4.55-0.18l-6.16,0.84l-6.64-2.41h-18.66l0.48,5.3l6.22,9.16l-1.08,4.7l0.06,2.47L496.55,421.96L496.55,421.96z"
   style="fill:#cccccc"
   inkscape:label="#path20369" />
<path
   id="bw"
   d="M508.51,411.23l2.15,0.66l-0.3,6.15l2.21,0.3l5.08-4.58l6.1,0.66l1.62-4.1l7.72-7.05l-9.27-10.67l-0.12-1.75l-1.02-0.3l-2.81,2.59l-7.3,0.18l-1.02,9.1l-2.87,0.66L508.51,411.23L508.51,411.23z"
   style="fill:#cccccc"
   inkscape:label="#path21129" />
<path
   id="path21131"
   d="M540.87,414l-2.51,0.42l-1.08,2.95l1.92,1.75h2.33l1.97-2.83L540.87,414L540.87,414z"
   style="fill:#cccccc" />
<path
   id="path21891"
   d="M527.41,425.39l3.05-2.35l1.44,0.06l1.74,2.17l-0.18,2.17l-2.93,1.08v0.84l-3.23-0.18l-0.78-2.35L527.41,425.39L527.41,425.39z"
   style="fill:#cccccc" />
<path
   id="za"
   d="M534.16,403.63l-7.9,7.3l-1.88,4.51l-6.26-0.78l-5.21,4.63l-3.46-0.34l0.28-6.4l-1.23-0.43l-0.86,13.09l-6.14-0.06l-1.85-2.18l-2.71-0.03l2.47,7.09l4.41,4.17l-3.15,3.67l2.04,4.6l4.72,1.8l3.76-3.2l10.77,0.06l0.77-0.96l4.78-0.84l16.17-16.1l-0.06-5.07l-1.73,2.24h-2.59l-3.15-2.64l1.6-3.98l2.75-0.56l-0.25-8.18L534.16,403.63L534.16,403.63z M530.37,422.13l1.51-0.06l2.45,2.66l-0.07,3.08l-2.87,1.45l-0.18,1.02l-4.38,0.05l-1.37-3.3l1.25-2.42L530.37,422.13L530.37,422.13z"
   inkscape:label="#path22651"
   style="fill:#cccccc" />

<path
   d="M 381.78125 28.0625 L 376.59375 29.15625 L 375.5 31.875 L 380.9375 33.78125 L 375.25 37.84375 L 371.15625 33.21875 L 365.4375 31.59375 L 364.625 35.9375 L 358.90625 35.9375 L 356.75 31.34375 L 347.78125 29.96875 L 342.875 32.40625 L 342.625 35.6875 L 336.375 34.875 L 332.5625 36.5 L 332.8125 40.3125 L 332.8125 42.1875 L 325.75 43.5625 L 322.5 41.375 L 320.3125 44.90625 L 323.5625 48.46875 L 330.375 47.625 L 330.90625 49.8125 L 325.75 52.28125 L 321.125 50.0625 L 319.78125 52.25 L 322.21875 54.6875 L 321.125 57.125 L 324.65625 61.75 L 329.03125 60.40625 L 334.71875 59.875 L 341.25 66.9375 L 345.625 78.625 L 342.09375 85.96875 L 346.96875 85.125 L 349.6875 86.78125 L 349.96875 90.3125 L 343.96875 90.59375 L 347.25 93.84375 L 351.3125 94.65625 L 342.34375 106.625 L 341.25 113.96875 L 343.15625 119.9375 L 341.8125 123.46875 L 344.25 131.09375 L 348.875 136.25 L 350.21875 136 L 353.21875 135.15625 L 353.5 139.53125 L 355.375 142.25 L 358.90625 141.96875 L 361.625 131.90625 L 369.8125 121.84375 L 382.03125 116.96875 L 389.65625 107.4375 L 393.1875 109.0625 L 400.53125 109.0625 L 406.5 103.09375 L 413.84375 100.09375 L 414.65625 95.46875 L 410.03125 91.40625 L 405.96875 90.03125 L 403.78125 84.34375 L 408.9375 81.34375 L 417.125 85.6875 L 419.84375 82.6875 L 415.46875 80.25 L 424.71875 67.75 L 423.09375 62.3125 L 418.75 62.03125 L 420.375 57.125 L 425.8125 54.6875 L 436.96875 44.90625 L 433.71875 41.375 L 421.1875 42.46875 L 414.65625 49 L 418.46875 40.5625 L 414.125 39.46875 L 411.6875 43.8125 L 408.15625 40.84375 L 398.375 41.90625 L 401.09375 37.5625 L 417.125 37.03125 L 413.03125 31.59375 L 395.625 28.34375 L 388.5625 29.40625 L 388.84375 32.96875 L 381.5 30.5 L 381.78125 28.0625 z M 410.875 85.6875 L 409.25 87.0625 L 410.34375 88.40625 L 415.21875 90.875 L 415.5 87.0625 L 410.875 85.6875 z "
   id="gl"
   inkscape:label="#path25914"
   style="fill:#cccccc" />
<path
   d="M 299.28125 16.875 L 298.59375 21.125 L 294.375 17.34375 L 289.5 18.90625 L 290.40625 21.375 L 297.71875 22.90625 L 297.28125 26.5 L 301.28125 28.9375 L 311.03125 26.5 L 311.25 29.84375 L 303.28125 33.625 L 298.375 29.84375 L 293.96875 30.28125 L 298.375 36.5625 L 296.15625 37.65625 L 292.84375 34.78125 L 290.40625 36.34375 L 292.625 40.5625 L 296.375 40.5625 L 295.5 44.59375 L 292.40625 44.125 L 288.40625 39.875 L 285.78125 40.375 L 285.78125 42.375 L 280.875 43.5 L 282.21875 45.71875 L 287.75 47.9375 L 293.96875 48.625 L 298.40625 51.75 L 302.84375 49.28125 L 299.71875 46.15625 L 303.71875 46.15625 L 306.15625 43.46875 L 312.15625 42.59375 L 312.15625 41.25 L 308.8125 39.03125 L 309.25 36.5625 L 318.5625 38.125 L 332.3125 32.75 L 327.21875 31.1875 L 328.5625 29.40625 L 339.1875 29.40625 L 340.96875 27.625 L 319.4375 20.03125 L 314.34375 18.21875 L 308.8125 22.25 L 302.59375 17.125 L 299.28125 16.875 z M 282.21875 17.34375 L 279.125 19.34375 L 279.34375 22.03125 L 275.78125 20.6875 L 274.25 22.71875 L 274.46875 26.28125 L 280.4375 26.28125 L 282 27.625 L 281.78125 29.1875 L 276.46875 29.84375 L 280.21875 35 L 285.34375 35.875 L 292.40625 32.75 L 282.21875 17.34375 z M 241.625 19.59375 L 238.53125 20.6875 L 238.75 22.25 L 245.625 21.8125 L 245.40625 20.25 L 241.625 19.59375 z M 224.78125 21.15625 L 222.125 23.84375 L 214.15625 24.0625 L 212.375 27.1875 L 221.03125 30.3125 L 224.125 25.625 L 225.46875 28.75 L 227.6875 28.75 L 231.875 24.0625 L 226.78125 22.71875 L 224.78125 21.15625 z M 260.71875 23.125 L 256.5 23.375 L 256.0625 24.9375 L 254.9375 26.5 L 254.9375 28.71875 L 259.15625 28.0625 L 263.59375 31.875 L 265.125 31.875 L 265.125 28.0625 L 260.71875 23.125 z M 238.3125 23.375 L 237.65625 25.625 L 241.875 27.625 L 244.96875 25.84375 L 244.75 24.5 L 238.3125 23.375 z M 271.125 27.40625 L 267.8125 27.84375 L 269.59375 29.875 L 268.03125 32.53125 L 269.125 35.4375 L 274.03125 32.75 L 274.03125 30.75 L 271.125 27.40625 z M 229.21875 30.3125 L 222.375 33.21875 L 222.375 35.4375 L 231.21875 38.78125 L 229.21875 41.03125 L 230.5625 43.90625 L 236.09375 41.46875 L 240.75 41.46875 L 242.96875 45.03125 L 246.75 41.21875 L 245.875 37.65625 L 242.75 38.78125 L 242.3125 34.3125 L 243.875 31.625 L 242.3125 31.625 L 239.875 33.1875 L 238.78125 34.0625 L 239.4375 37.1875 L 237.65625 38.53125 L 235 38.3125 L 234.34375 34.3125 L 229.21875 30.3125 z M 206.3125 35.84375 L 201.53125 37.625 L 202.78125 41.4375 L 197.1875 51.5 L 200.875 57.4375 L 206.03125 54.4375 L 207.96875 48.84375 L 215.28125 43.625 L 221.8125 41.40625 L 215.15625 37.1875 L 213.125 39.8125 L 211.03125 39.6875 L 209.3125 37.59375 L 206.3125 35.84375 z M 268.90625 38.34375 L 266.25 39.25 L 266.6875 42.8125 L 271.125 45.71875 L 271.34375 47.9375 L 270.03125 49.28125 L 270.6875 53.75 L 287.75 59.34375 L 292.40625 60.875 L 297.09375 56.875 L 291.53125 52.40625 L 286.4375 53.75 L 279.34375 53.0625 L 276.6875 50.375 L 276.03125 43.03125 L 271.59375 40.78125 L 268.90625 38.34375 z M 260.5 39.90625 L 255.625 40.59375 L 252.71875 43.25 L 258.0625 43.46875 L 256.5 47.5 L 257.625 49.28125 L 259.15625 49.0625 L 262.9375 43.03125 L 260.5 39.90625 z M 222.59375 47.96875 L 214.15625 50.1875 L 209.28125 54.4375 L 209.71875 59.125 L 218.59375 61.8125 L 216.59375 66.28125 L 210.15625 62.25 L 208.375 65.625 L 212.59375 68.5 L 212.375 73.1875 L 218.8125 75 L 226.5625 74.53125 L 227.90625 72.09375 L 233.65625 78.5625 L 237.65625 77.21875 L 238.3125 72.75 L 241.1875 74.75 L 241.625 70.28125 L 238.09375 68.0625 L 238.3125 54 L 235.21875 51.53125 L 231.875 56 L 222.59375 47.96875 z M 263.375 48.40625 L 262.25 50.625 L 267.125 52.40625 L 268.46875 50.40625 L 263.375 48.40625 z M 158.21875 48.65625 L 130.875 95.15625 L 135.84375 101.6875 L 141.3125 101.9375 L 145.3125 123.5 L 138.84375 128.03125 L 139.34375 132.0625 L 141.8125 134.5625 L 142.3125 137.0625 L 141.3125 141.59375 L 141.3125 146.625 L 147.8125 152.625 L 148.96875 157.40625 L 219.6875 169.03125 L 229.4375 175.875 L 234.875 176.3125 L 239.9375 180.1875 L 242.4375 184.96875 L 246.34375 188.75 L 239.4375 199.03125 L 240.9375 201.0625 L 254.625 196.53125 L 264.84375 189.5 L 276.8125 189.5 L 277.3125 185.21875 L 282.53125 182.96875 L 284.25 183.96875 L 284.53125 192.5 L 290.5 190.5 L 285.53125 195.5 L 286.53125 198.53125 L 290.03125 198.53125 L 292.75 194.5 L 299 194.25 L 302.21875 188.21875 L 300.25 188.21875 L 298.75 190.5 L 295.75 191.25 L 292.75 189.21875 L 292.5 184.21875 L 294.25 178.6875 L 293 177.1875 L 286.53125 178.4375 L 281.28125 179.6875 L 290 172.90625 L 295 173.15625 L 304.9375 175.40625 L 309.6875 170.375 L 319.625 167.875 L 319.375 162.375 L 310.40625 151.5625 L 307.6875 133.75 L 297.96875 140.28125 L 293.96875 138.03125 L 296.21875 130.75 L 291 123.46875 L 281.03125 119.9375 L 273.0625 135.5 L 272.5625 144.28125 L 269.5625 150.0625 L 263.34375 150.3125 L 262.84375 160.34375 L 258.84375 165.625 L 255.875 163.625 L 256.125 160.34375 L 258.59375 148.8125 L 247.125 143.78125 L 239.90625 136.5 L 237.9375 131.5 L 232.6875 129.46875 L 233.6875 126.21875 L 241.40625 115.9375 L 250.125 109.15625 L 257.875 107.375 L 260.34375 103.375 L 259.34375 100.125 L 268.8125 98.09375 L 274.03125 100.625 L 279.53125 97.59375 L 281.75 87.3125 L 276.28125 81.53125 L 269.8125 91.59375 L 265.3125 90.59375 L 268.8125 84.5625 L 266.3125 83.0625 L 262.09375 86.8125 L 261.59375 69.25 L 258.84375 67.21875 L 252.875 70.25 L 252.125 73.5 L 254.625 77.53125 L 254.375 82.78125 L 249.875 86.8125 L 247.625 90.3125 L 247.125 86.8125 L 251.125 79.78125 L 249.625 75.75 L 245.15625 78.53125 L 244.90625 83.28125 L 242.40625 86.3125 L 238.6875 85.5625 L 231.21875 82.03125 L 227.71875 76.78125 L 223 78.03125 L 222.25 85.5625 L 219.25 85.0625 L 219 80.03125 L 207.8125 77.78125 L 206.5625 76.53125 L 209.5625 71.75 L 203.8125 68.25 L 195.09375 57.9375 L 191.625 57.6875 L 191.625 61.21875 L 188.125 61.21875 L 187.125 52.9375 L 181.125 55.4375 L 172.65625 54.6875 L 169.6875 53.1875 L 166.1875 56.9375 L 161.21875 55.6875 L 160.21875 51.65625 L 158.21875 48.65625 z M 251.1875 54 L 249.625 57.78125 L 246.75 56.4375 L 245.1875 58.46875 L 248.3125 63.375 L 248.53125 68.0625 L 255.15625 64.0625 L 255.15625 58.25 L 257.625 55.78125 L 255.15625 54 L 251.1875 54 z M 263.8125 55.78125 L 259.15625 59.59375 L 260.28125 64.28125 L 263.15625 64.28125 L 264.46875 61.8125 L 266.46875 63.8125 L 268.46875 63.59375 L 273.8125 59.125 L 263.8125 55.78125 z M 278 61.125 L 272.25 63.375 L 269.125 67.625 L 270.03125 79.21875 L 279.5625 79.6875 L 288.65625 84.15625 L 295.09375 91.53125 L 299.96875 91.3125 L 298.625 98.21875 L 294.1875 105.59375 L 289.3125 107.8125 L 285.78125 107.15625 L 284 105.59375 L 281.34375 109.15625 L 282.4375 112.71875 L 286.21875 112.9375 L 290.875 110.71875 L 294.875 121 L 304.84375 127.46875 L 311.71875 118.78125 L 305.96875 109.375 L 309.28125 105.59375 L 313.9375 113.40625 L 322.375 106.03125 L 320.8125 102.6875 L 315.0625 104.46875 L 311.0625 93.53125 L 314.84375 87.28125 L 307.3125 79.25 L 303.09375 82.125 L 299.09375 73.4375 L 290.6875 74.5625 L 288.46875 64.0625 L 281.59375 68.75 L 280.90625 74.5625 L 277.15625 74.5625 L 277.59375 69.40625 L 282.875 61.59375 L 278 61.125 z M 292.875 65.625 L 291.09375 67.40625 L 292.625 69.875 L 299.96875 70.75 L 295.3125 65.84375 L 292.875 65.625 z M 342.875 92.5 L 340.4375 93.59375 L 339.875 95.46875 L 342.0625 97.9375 L 343.6875 97.9375 L 344.53125 94.9375 L 342.875 92.5 z M 266 101.84375 L 261.78125 107.15625 L 261.53125 113.03125 L 265.21875 110.90625 L 269.71875 110.90625 L 272.875 113.84375 L 275.78125 111.4375 L 266 101.84375 z M 317.53125 171.0625 L 306.9375 181.15625 L 308 183.5625 L 320.9375 188.375 L 322.8125 185.15625 L 321.75 179.84375 L 317.5 180.375 L 315.125 177.71875 L 319.09375 173.71875 L 317.53125 171.0625 z "
   id="ca"
   inkscape:label="#path25916"
   style="fill:#cccccc" />


<path
   style="fill:#cccccc"
   d="M 329.34375 547.25 L 327.15625 548.09375 L 326.625 550.125 L 328.5 550.8125 L 331.625 548.65625 L 329.34375 547.25 z M 323.59375 552.53125 L 320.59375 553.125 L 321.15625 555.40625 L 324.8125 555.28125 L 323.59375 552.53125 z M 319.5625 556.46875 L 317.09375 556.96875 L 316.53125 559.53125 L 321.28125 558.8125 L 319.5625 556.46875 z M 328.34375 557.15625 L 328.375 560.71875 L 330.40625 560.8125 L 332.0625 558.1875 L 328.34375 557.15625 z M 325.96875 558.75 L 310.625 571.9375 L 312.78125 576.1875 L 309.375 576.1875 L 309.375 582.15625 L 311.5 587.6875 L 310.21875 589.8125 L 315.75 598.3125 L 316.1875 606.40625 L 297.46875 614.0625 L 288.9375 611.9375 L 274.46875 615.34375 L 273.625 619.15625 L 260 623 L 330.21875 622.59375 L 331.5 620.46875 L 329.375 614.9375 L 331.9375 613.65625 L 331.5 603 L 324.6875 594.5 L 323.40625 588.53125 L 320 583.875 L 314.90625 584.28125 L 314.46875 579.1875 L 316.15625 575.34375 L 319.5625 576.1875 L 322.5625 571.9375 L 319.5625 570.65625 L 322.5625 565.5625 L 325.53125 564.6875 L 325.96875 558.75 z M 574.5 571.0625 L 567.6875 571.90625 L 567.25 577.875 L 562.5625 574.90625 L 549.375 578.71875 L 537.46875 586.375 L 531.09375 579.59375 L 526.40625 579.59375 L 525.125 583.84375 L 520.4375 583.40625 L 506.40625 586.375 L 495.34375 583.40625 L 464.6875 583.84375 L 459.59375 586.375 L 454.0625 585.96875 L 451.09375 582.96875 L 438.75 586.8125 L 434.46875 585.53125 L 429.375 589.375 L 428.09375 595.3125 L 422.125 595.75 L 416.15625 603.40625 L 409.78125 604.6875 L 407.25 610.21875 L 392.34375 617.875 L 388.53125 623 L 764.3125 622.5625 L 755.78125 617.46875 L 755.375 610.65625 L 752.8125 611.09375 L 748.96875 611.09375 L 743.875 610.65625 L 737.90625 613.1875 L 731.53125 608.09375 L 726.84375 607.65625 L 726.40625 603.84375 L 722.15625 606.8125 L 708.96875 602.5625 L 708.125 597.875 L 706 597.03125 L 691.53125 600 L 691.09375 594.875 L 684.71875 590.21875 L 677.90625 590.625 L 673.21875 593.1875 L 669.8125 591.90625 L 655.34375 589.78125 L 651.53125 587.65625 L 633.21875 589.34375 L 608.125 599.125 L 606.84375 602.125 L 601.3125 599.125 L 601.3125 594.46875 L 607.25 587.65625 L 605.125 585.09375 L 600.03125 585.53125 L 581.71875 577.875 L 581.71875 574.46875 L 574.5 571.0625 z M 304.6875 587.65625 L 300.4375 588.53125 L 302.96875 593.1875 L 305.96875 594.46875 L 304.6875 597.03125 L 304.6875 598.71875 L 296.59375 600.875 L 297.4375 603.40625 L 300.84375 604.6875 L 304.65625 601.71875 L 308.0625 602.5625 L 305.9375 605.96875 L 307.21875 606.8125 L 311.0625 605.125 L 314.03125 599.59375 L 304.6875 587.65625 z M 295.75 606.8125 L 292.34375 609.8125 L 295.34375 610.65625 L 299.15625 611.5 L 303 608.9375 L 299.15625 608.09375 L 295.75 606.8125 z M 255.34375 614.46875 L 250.21875 615.34375 L 246.375 617.03125 L 242.5625 617.875 L 242.5625 619.59375 L 251.0625 619.59375 L 253.1875 622.125 L 256.1875 620.875 L 256.625 618.3125 L 257.46875 616.1875 L 255.34375 614.46875 z "
   id="aq"
   inkscape:label="#path26683" />









<path
   style="fill:#cccccc"
   d="M 828.25 381.125 L 817.9375 383.96875 L 815.125 392.1875 L 810.5 393.28125 L 810.15625 387.5625 L 791.34375 399 L 791.6875 403.28125 L 788.875 407.21875 L 781.75 407.21875 L 766.5 413.625 L 761.15625 427.96875 L 760.8125 453.375 L 756.90625 456.21875 L 756.5625 458.71875 L 761.875 462.28125 L 775.03125 459.78125 L 781.75 459.78125 L 784.25 456.21875 L 799.125 453.34375 L 809.78125 456.5625 L 809.0625 460.875 L 810.5 465.15625 L 818.65625 463.71875 L 819 465.875 L 813.6875 469.78125 L 815.4375 471.21875 L 819.34375 469.78125 L 818.28125 481.59375 L 825.75 487.3125 L 830 485.875 L 832.125 488.03125 L 844.5625 486.21875 L 856.25 467.28125 L 860.53125 466.21875 L 869.03125 450.46875 L 871.15625 436.90625 L 865.84375 430.125 L 867.96875 428.6875 L 863.71875 415.4375 L 859.09375 412.21875 L 859.8125 394.375 L 855.5625 391.125 L 854.5 381.125 L 852.375 381.125 L 845.25 404.71875 L 841.375 405.09375 L 832.5 396.125 L 837.46875 382.90625 L 828.25 381.125 z M 825.75 496.25 L 823.96875 503.40625 L 824.3125 508.40625 L 829.625 508.0625 L 835.65625 498.75 L 825.75 496.25 z "
   id="au" />

<path
   d="M 913.03125 481.96875 L 914.09375 493.75 L 912.65625 499.125 L 907.34375 503.0625 L 907.6875 507.6875 L 907.6875 512.6875 L 909.125 514.5 L 923.65625 501.96875 L 923.65625 499.125 L 920.125 499.125 L 915.125 482.3125 L 913.03125 481.96875 z M 902.375 507.6875 L 888.53125 520.21875 L 873.625 526.625 L 874.34375 529.5 L 882.5 533.4375 L 891.375 525.21875 L 896.6875 524.5 L 897.40625 520.5625 L 905.21875 513.0625 L 902.375 507.6875 z "
   id="nz"
   inkscape:label=""
   style="fill:#cccccc" />

<path
   id="path1372"
   d="M906.64,420.47l-0.35,1.79l4.61,6.43l2.48,1.07l0.35-2.5L906.64,420.47L906.64,420.47z"
   style="fill:#cccccc" />

<path
   style="fill:#cccccc"
   d="M 783.375 312.875 L 780.375 318.4375 L 781.46875 321.625 L 779.625 324.3125 L 776.15625 323.40625 L 767.75 329.59375 L 767.96875 333.15625 L 764.125 332.90625 L 767.15625 336.40625 L 778.75 332.40625 L 781.03125 323.5625 L 786.1875 323.1875 L 790.90625 319.78125 L 784.78125 315.3125 L 783.375 312.875 z M 734.375 315.40625 L 732.71875 315.4375 L 734.71875 319.96875 L 735.15625 325.8125 L 737.875 330 L 744.34375 333.9375 L 746.8125 334.15625 L 746.375 330.09375 L 744.21875 324.90625 L 741.125 318.28125 L 740.84375 319.4375 L 737.09375 319.28125 L 734.375 315.40625 z "
   id="my"
   inkscape:label="#path2060" />
<path
   id="bn"
   d="M779.77,319.25l-2.88,3.49l2.36,0.74l1.33-1.86L779.77,319.25L779.77,319.25z"
   style="fill:#cccccc"
   inkscape:label="#path2820" />









<path
   id="path5154"
   d="M880.48,349l-0.88,1.25l4.81,4.26l0.66,2.5l1.31-0.15l0.15-2.57l-1.46-1.32L880.48,349L880.48,349z"
   style="fill:#cccccc" />
<path
   id="path5156"
   d="M882.89,355.03l-0.95,0.22l-0.58,2.57l-1.82,1.18l-5.47,0.96l0.22,2.06l5.76-0.29l3.65-2.28l-0.22-3.97L882.89,355.03L882.89,355.03z"
   style="fill:#cccccc" />
<path
   id="path5158"
   d="M889.38,359.51l1.24,3.45l2.19,2.13l0.66-0.59l-0.22-2.28l-2.48-3.01L889.38,359.51L889.38,359.51z"
   style="fill:#cccccc" />
<path
   id="path5918"
   d="M895.43,364.65l0.15,2.28l1.39,1.32l1.31-0.81l-1.17-2.43L895.43,364.65L895.43,364.65z"
   style="fill:#cccccc" />
<path
   id="path5920"
   d="M897.18,370.31l-1.17,1.25l1.24,2.28l1.46,0.44l-0.07-1.54L897.18,370.31L897.18,370.31z"
   style="fill:#cccccc" />
<path
   id="path5922"
   d="M900.03,368.99l1.02,2.5l1.97,2.35l1.09-1.76l-1.46-2.5L900.03,368.99L900.03,368.99z"
   style="fill:#cccccc" />
<path
   id="path5924"
   d="M905.14,372.74l0.58,3.09l1.39,1.91l1.17-2.42L905.14,372.74L905.14,372.74z"
   style="fill:#cccccc" />
<path
   id="path5926"
   d="M906.74,379.65l-0.51,0.88l1.68,2.21l1.17,0.07l-0.73-2.87L906.74,379.65L906.74,379.65z"
   style="fill:#cccccc" />
<path
   id="path5928"
   d="M903.02,384.05l-1.75,0.81l1.53,2.13l1.31-0.74L903.02,384.05L903.02,384.05z"
   style="fill:#cccccc" />
<path
   id="path5930"
   d="M920.87,397.22l-1.24,1.66l0.52,1.87l0.62,0.42l1.13-1.46L920.87,397.22L920.87,397.22z"
   style="fill:#cccccc" />
<path
   id="path5932"
   d="M921.49,402.31l0.1,1.35l1.34,0.42l0.93-0.52l-0.93-1.46L921.49,402.31L921.49,402.31z"
   style="fill:#cccccc" />
<path
   id="path5934"
   d="M923.45,414.37l-0.62,0.94l0.93,1.04l1.55-0.52L923.45,414.37L923.45,414.37z"
   style="fill:#cccccc" />
<path
   id="path5936"
   d="M948.62,412.29l-1.24,1.66l-0.1,1.87l1.44,1.46L948.62,412.29L948.62,412.29z"
   style="fill:#cccccc" />
<path
   style="fill:#cccccc"
   d="M 791.375 272.96875 L 788.8125 274.8125 L 788.5 280.59375 L 792.53125 288.375 L 793.875 289.4375 L 795.59375 288.28125 L 798.5625 288.75 L 799.125 291.375 L 801.3125 291.5625 L 802.375 290.125 L 801.03125 288.28125 L 799.40625 286.75 L 795.96875 286.375 L 794.125 283.375 L 796.25 280.1875 L 796.4375 277.40625 L 795 273.84375 L 791.375 272.96875 z M 792.71875 290.21875 L 793.46875 292.90625 L 794.8125 293.78125 L 795.78125 292.53125 L 794.25 290.40625 L 792.71875 290.21875 z M 805.625 292.8125 L 803.40625 293.28125 L 805.25 295.6875 L 806.09375 298 L 807.71875 298 L 807.4375 294.0625 L 805.625 292.8125 z M 797.125 295.21875 L 797 300.21875 L 798.84375 302.0625 L 799.5 305.625 L 801.3125 306 L 802.1875 303.78125 L 800.75 302.71875 L 800.375 296.46875 L 797.125 295.21875 z M 802.28125 297.15625 L 802.1875 301.59375 L 803.21875 303.3125 L 805.0625 301.1875 L 804.5625 297.34375 L 802.28125 297.15625 z M 789.375 297.53125 L 788.5 299.15625 L 788.03125 301.1875 L 783.25 307.25 L 783.53125 308.5 L 785.5625 308.21875 L 791.75 301.28125 L 789.375 297.53125 z M 806.96875 302.34375 L 807.34375 305.25 L 804 307.9375 L 801.21875 308.21875 L 798.25 311.40625 L 798.375 312.875 L 801.125 312 L 803.03125 310.75 L 804.65625 314.875 L 807.53125 316.90625 L 808.6875 316.5 L 809.75 315.25 L 807.4375 312.9375 L 808.78125 311.875 L 810.3125 313.125 L 811.375 311.40625 L 810.3125 309.28125 L 810.125 304.5625 L 806.96875 302.34375 z "
   id="ph"
   inkscape:label="#path7454" />






<path
   style="fill:#cccccc"
   d="M 749.21875 140.65625 L 746.78125 142.78125 L 749.875 149.875 L 748.78125 156.5625 L 744.9375 158.15625 L 742.75 157.96875 L 742.59375 164.5625 L 744.875 165.09375 L 748.875 163.3125 L 754.15625 165.84375 L 754.15625 168.375 L 750.375 168.625 L 747.375 175.1875 L 744.625 175.4375 L 734.8125 188.375 L 724.5 192.90625 L 717.46875 193.4375 L 712.6875 190.125 L 705.90625 193.6875 L 698.625 191.40625 L 696.875 186.59375 L 684.5625 185.84375 L 678.03125 175.21875 L 675.25 175.21875 L 673.03125 170.28125 L 670.40625 170.0625 L 666.9375 178.78125 L 662.15625 178.53125 L 657.125 189.53125 L 661.40625 194.96875 L 652.625 207.125 L 648.09375 206.375 L 645.0625 210.15625 L 645.8125 212.4375 L 649.34375 212.6875 L 651.09375 216.75 L 654.625 217.5 L 665.4375 231.4375 L 665.4375 238.53125 L 670.71875 241.8125 L 676.5 240.8125 L 683.78125 245.09375 L 692.59375 247.625 L 696.84375 247.125 L 701.625 246.625 L 711.6875 240.03125 L 714.9375 240.53125 L 716.1875 243.5 L 718.96875 244.34375 L 722.75 249.90625 L 720.21875 255.46875 L 721.75 259.28125 L 726 260.8125 L 726.75 265.375 L 731.78125 265.875 L 732.53125 263.59375 L 739.84375 259.78125 L 744.34375 260.03125 L 749.625 265.875 L 753.15625 264.34375 L 755.40625 264.59375 L 756.40625 267.375 L 758.1875 267.625 L 760.6875 264.09375 L 770.75 260.28125 L 779.78125 249.40625 L 782.8125 239.03125 L 782.5625 232.1875 L 778.78125 231.40625 L 781.0625 228.875 L 780.5625 224.84375 L 771 215.21875 L 771 210.40625 L 773.75 206.875 L 776.53125 205.59375 L 776.78125 202.8125 L 769.71875 202.8125 L 768.46875 206.625 L 765.1875 205.84375 L 761.1875 201.5625 L 763.6875 194.96875 L 767.21875 191.15625 L 770.46875 191.40625 L 769.96875 197.25 L 771.75 198.75 L 776 194.46875 L 777.53125 194.21875 L 777.03125 190.90625 L 781.03125 186.125 L 784.0625 186.375 L 785.8125 180.78125 L 787.875 179.6875 L 788.09375 176.21875 L 786.09375 174.125 L 785.90625 168.65625 L 789.78125 168.40625 L 789.53125 154.28125 L 786.8125 155.875 L 785.8125 159.5 L 781.3125 159.5 L 768.21875 152.15625 L 758.78125 140.78125 L 749.21875 140.65625 z M 759.84375 270.15625 L 757.4375 270.84375 L 755.71875 272.96875 L 757.15625 275.75 L 759.25 275.9375 L 761.625 273.8125 L 762.21875 271.03125 L 759.84375 270.15625 z "
   id="cn"
   inkscape:label="#path7468" />
<path
   id="tw"
   d="M787.46,248.31l-3.54,2.7l-0.19,5.2l3.06,3.56l0.76-0.67L787.46,248.31L787.46,248.31z"
   inkscape:label="#path7470"
   style="fill:#cccccc" />
<path
   style="fill:#cccccc"
   d="M 816.4375 163.4375 L 814.90625 164.78125 L 815.65625 167.6875 L 817 169.03125 L 816.90625 173.46875 L 815.1875 174.125 L 813.84375 177.125 L 817.78125 182.5 L 820.34375 181.625 L 820.84375 180.28125 L 818.0625 177.78125 L 819.78125 175.5625 L 821.59375 175.875 L 823.03125 177.40625 L 823.125 174.21875 L 827.0625 171.03125 L 829.25 170.46875 L 827.4375 167.375 L 826.5625 166.03125 L 825.125 167 L 823.90625 168.53125 L 821.21875 167.9375 L 818.4375 166.125 L 816.4375 163.4375 z M 822.53125 183.375 L 821.3125 183.46875 L 818.71875 186.375 L 818.71875 188.78125 L 819.875 190.125 L 820.25 196.46875 L 817.28125 200.125 L 815.5625 199.09375 L 814.21875 202.0625 L 813.9375 204.875 L 815 206.5 L 814.3125 207.75 L 812.125 205.90625 L 810.59375 205.90625 L 809.25 206.6875 L 808.1875 206.96875 L 803.3125 212.5625 L 804.1875 213.90625 L 806.5625 214.21875 L 811.0625 210.75 L 814.21875 210.15625 L 817.09375 213.53125 L 819.28125 212.75 L 820.15625 209.46875 L 824.25 209.375 L 828.28125 204.5625 L 826.1875 196.5625 L 825.21875 192.3125 L 827.3125 190.59375 L 822.53125 183.375 z M 812.03125 213.15625 L 809.25 215.75 L 809.15625 218.75 L 809.84375 219.625 L 813.5625 216.4375 L 813.28125 213.25 L 812.03125 213.15625 z M 803.21875 216.40625 L 801.59375 218.0625 L 802.28125 220.375 L 803.6875 220.46875 L 804.65625 225.46875 L 805.8125 226.71875 L 807.8125 224.90625 L 808.6875 221.625 L 806.1875 218.0625 L 803.21875 216.40625 z "
   id="jp"
   inkscape:label="#path7472" />



<path
   id="path7480"
   d="M830.86,160.45l-2.68,3.76l0.19,1.83l1.34-0.58l3.15-3.95L830.86,160.45L830.86,160.45z"
   style="fill:#cccccc" />
<path
   id="path7482"
   d="M834.4,154.96l-0.96,2.6l0.1,1.73l1.63-1.06l1.53-3.08V154L834.4,154.96L834.4,154.96z"
   style="fill:#cccccc" />
<path
   style="fill:#cccccc"
   d="M 833.75 2.875 L 830.40625 4.09375 L 828.71875 6.59375 L 830.84375 9.40625 L 836.46875 6.9375 L 837.59375 5.6875 L 836.6875 3.75 L 833.75 2.875 z M 755.25 7.25 L 753.4375 8.625 L 748.28125 9.75 L 746.9375 10.09375 L 748.71875 13.46875 L 755.6875 12.6875 L 757.59375 10.1875 L 757.15625 8.0625 L 755.25 7.25 z M 741 8.375 L 738.40625 10.09375 L 732.125 10.65625 L 732.125 13.5 L 725.53125 13.59375 L 725.53125 18.21875 L 733.25 24 L 735.28125 22.53125 L 734.84375 18.4375 L 739.78125 17.21875 L 738.75 15.28125 L 736.96875 13.46875 L 739.75 12.8125 L 742.4375 15.0625 L 744.375 14.28125 L 744.90625 11.09375 L 741 8.375 z M 835.78125 15.71875 L 816.90625 19 L 814.15625 20.53125 L 814.15625 22.0625 L 818.1875 24.09375 L 817.6875 28.875 L 810.375 25.84375 L 794.3125 32.1875 L 791.5625 26.375 L 780.5 26.375 L 775.46875 31.6875 L 757.625 27.625 L 741.28125 30.90625 L 739.28125 35.96875 L 741.78125 36.75 L 741.53125 40.53125 L 725.71875 42.3125 L 726.71875 47.375 L 712.125 44.84375 L 715.65625 38.25 L 700.84375 37.5 L 702.09375 44.34375 L 697.3125 46.625 L 693.3125 42.8125 L 676.96875 45.625 L 670.6875 51.4375 L 670.4375 54.96875 L 666.40625 55.21875 L 665.90625 51.15625 L 678.75 40.03125 L 678.75 32.4375 L 670.4375 30.15625 L 659.625 33.6875 L 655.125 29.125 L 653.125 29.125 L 650.59375 34.1875 L 652.625 36.46875 L 638.28125 44.3125 L 625.96875 53.6875 L 618.4375 64.0625 L 618.4375 68.375 L 626.46875 71.65625 L 622.4375 74.6875 L 613.90625 71.65625 L 610.375 74.6875 L 605.125 68.625 L 604.09375 70.90625 L 609.875 89.125 L 611.375 89.625 L 615.40625 87.625 L 617.40625 89.125 L 617.40625 92.40625 L 613.65625 90.90625 L 611.375 92.65625 L 612.90625 95.96875 L 611.625 104.5625 L 603.84375 105.34375 L 603.34375 102.53125 L 607.875 99.75 L 608.875 92.15625 L 603.84375 85.5625 L 602.09375 74.1875 L 594.0625 72.90625 L 593.3125 76.96875 L 594.8125 79 L 591.53125 81.78125 L 592.8125 89.375 L 597.5625 91.40625 L 598.59375 96.96875 L 593.8125 93.9375 L 581.5 91.65625 L 579.96875 95.71875 L 570.1875 99.25 L 568.65625 96.71875 L 555.84375 103.8125 L 555.59375 108.625 L 550.5625 109.375 L 552.09375 105.84375 L 552.09375 102.3125 L 547.0625 100.53125 L 543.78125 101.8125 L 546.53125 107.125 L 548.5625 110.65625 L 548.5625 113.4375 L 544.78125 112.6875 L 544.03125 111.9375 L 540.25 115.96875 L 542.28125 119.53125 L 533.71875 119.28125 L 536.5 122.8125 L 535.75 124.34375 L 531.21875 124.34375 L 527.9375 122.0625 L 527.1875 115.71875 L 521.90625 113.6875 L 521.90625 111.15625 L 532.96875 113.4375 L 539 113.96875 L 541.53125 110.15625 L 539.25 106.125 L 523.1875 99.78125 L 517.625 101.15625 L 515.71875 102.78125 L 516.3125 106.53125 L 518.6875 106.9375 L 518.125 112.84375 L 525.40625 129.9375 L 520.15625 138.28125 L 519.78125 140.15625 L 522.46875 142.0625 L 520.0625 143.625 L 518.4375 143.65625 L 518.75 151.03125 L 520.96875 154.15625 L 521 157.1875 L 523.8125 157.4375 L 528.15625 159.09375 L 532.71875 165.40625 L 532.78125 167.0625 L 531.28125 169.625 L 534.71875 169.40625 L 538.03125 170.375 L 542.53125 176.75 L 553.625 177.75 L 553.125 185.34375 L 549.3125 188.625 L 550.125 189.875 L 546.34375 193.9375 L 545.34375 197.75 L 547.59375 201.03125 L 554.875 203.5625 L 557.90625 201.78125 L 577.25 209.125 L 578 207.09375 L 574 203.3125 L 574 198.5 L 571.46875 197.71875 L 571.96875 193.6875 L 576 188.875 L 568.78125 183.46875 L 569.28125 175.96875 L 577 170.875 L 586.0625 171.40625 L 587.5625 174.1875 L 596.875 174.6875 L 603.65625 170.90625 L 600.125 167.09375 L 600.875 160 L 618.46875 151.40625 L 632 157.5 L 636.53125 153.4375 L 649.84375 166.125 L 659.875 165.09375 L 663.40625 168.625 L 672.96875 169.65625 L 679.25 161.03125 L 687.28125 164.59375 L 691.5625 165.34375 L 695.8125 161.5625 L 692.0625 159.03125 L 695.3125 153.96875 L 704.625 157 L 706.625 161.0625 L 710.65625 161.3125 L 713.15625 159.53125 L 719.9375 159.28125 L 720.6875 161.0625 L 728.5 161.5625 L 733.78125 156 L 744.59375 157.25 L 747.84375 156 L 748.84375 149.90625 L 745.59375 142.5625 L 748.84375 139.78125 L 759.15625 139.78125 L 768.9375 151.4375 L 781.5 158.53125 L 785.28125 158.53125 L 785.78125 155.46875 L 790.3125 152.6875 L 790.8125 169.15625 L 786.78125 169.40625 L 786.78125 173.4375 L 789.03125 176.25 L 788.625 179.875 L 790.28125 180.5625 L 791.3125 178.03125 L 792.8125 178.53125 L 793.8125 179.53125 L 798.34375 178.53125 L 802.84375 165.375 L 803.34375 148.90625 L 797.5625 135.71875 L 790.28125 126.875 L 786.75 127.375 L 786.75 130.15625 L 778.21875 126.875 L 781.5 119.78125 L 784.25 101.0625 L 795.8125 97.5 L 801.34375 93.96875 L 807.375 93.96875 L 805.875 96 L 807.375 98.53125 L 812.65625 92.96875 L 815.65625 93.21875 L 815.15625 89.90625 L 810.375 88.90625 L 813.65625 77 L 817.96875 72.9375 L 819.71875 79 L 823.25 80.03125 L 826.78125 74.4375 L 824.75 70.65625 L 825.5 67.375 L 830.78125 67.375 L 829.53125 69.875 L 830.03125 79 L 822.5 97.75 L 823.25 101.8125 L 823 108.625 L 837.0625 129.15625 L 839.8125 129.90625 L 840.0625 113.1875 L 842.84375 110.65625 L 839.8125 104.09375 L 842.3125 101.3125 L 836.78125 93.96875 L 833.78125 94.21875 L 832.78125 82.0625 L 840.5625 80.03125 L 841.0625 76.46875 L 845.09375 75.46875 L 847.34375 77.5 L 850.09375 66.375 L 854.875 58.25 L 858.625 56.21875 L 861.90625 56.46875 L 861.90625 52.6875 L 856.625 51.65625 L 849.34375 45.59375 L 852.875 41.53125 L 849.84375 34.6875 L 852.34375 32.15625 L 855.375 36.21875 L 862.90625 39 L 871.1875 39.78125 L 872.21875 36.21875 L 867.9375 31.9375 L 872.71875 25.34375 L 861.90625 21.5625 L 859.125 27.125 L 855.625 22.5625 L 835.78125 15.71875 z M 630.125 16.75 L 629.625 18.3125 L 626.875 19.875 L 624.78125 20.5625 L 624.4375 22.65625 L 629.28125 23 L 634.9375 18.15625 L 632.71875 16.75 L 630.125 16.75 z M 640.28125 18.65625 L 639.0625 21.28125 L 636.65625 21.09375 L 632.875 23.875 L 631.84375 27.34375 L 634.25 27.34375 L 635.625 25.09375 L 638.90625 27.53125 L 642 26.125 L 644.25 24.21875 L 643.375 21.28125 L 642.15625 19.1875 L 640.28125 18.65625 z M 645.28125 20.59375 L 646.5 25.4375 L 648.375 29.9375 L 650.4375 26.3125 L 654.40625 25.4375 L 654.40625 22.84375 L 651.84375 20.9375 L 645.28125 20.59375 z M 743 22.40625 L 741 24.5625 L 740.09375 27.5 L 744.8125 27.0625 L 748.40625 25.25 L 746.5 23.3125 L 743 22.40625 z M 572.09375 33.25 L 570.375 34.96875 L 571.25 36.53125 L 571.75 38.96875 L 574 37.25 L 574.53125 35.34375 L 574 33.59375 L 572.09375 33.25 z M 555.90625 36 L 554.375 36.875 L 554.375 38.96875 L 556.09375 40.34375 L 558.5 40.1875 L 560.5625 38.28125 L 560.5625 36.875 L 558.65625 36.875 L 557.125 37.40625 L 555.90625 36 z M 566.40625 36.1875 L 564.1875 37.0625 L 565.375 39.65625 L 567.8125 39.84375 L 569.53125 39.125 L 568.65625 36.71875 L 566.40625 36.1875 z M 547.8125 38.78125 L 545.25 40.53125 L 542.84375 40.53125 L 541.625 42.09375 L 541.4375 44.15625 L 543 46.0625 L 545.75 46.0625 L 548.34375 44.5 L 548.34375 41.5625 L 549.53125 39.46875 L 547.8125 38.78125 z M 584.5 51.96875 L 583.96875 54.40625 L 580 57.875 L 571.5625 59.78125 L 564.6875 71.25 L 563.46875 74.53125 L 570.375 76.28125 L 571.375 72.125 L 573.46875 65.6875 L 578.8125 62.90625 L 583.28125 59.4375 L 586.5625 58.0625 L 588.28125 58.0625 L 588.28125 53.375 L 584.5 51.96875 z M 562.28125 77.3125 L 562.4375 81.8125 L 559.34375 82.6875 L 559.34375 84.59375 L 561.40625 87.375 L 566.40625 87.5625 L 568.65625 90.15625 L 571.0625 90.15625 L 572.4375 87.375 L 568.46875 83.21875 L 566.9375 77.84375 L 562.28125 77.3125 z M 852.5625 103.40625 L 850.65625 103.625 L 851.8125 105.25 L 854.1875 106.875 L 854.875 106.125 L 852.5625 103.40625 z M 856.28125 104.59375 L 856.59375 106.21875 L 859.53125 107.09375 L 859.84375 105.9375 L 856.28125 104.59375 z M 872.53125 110.875 L 873.78125 113.125 L 875.875 112.96875 L 876.28125 111.4375 L 872.53125 110.875 z M 798.625 122.59375 L 798.5625 128.75 L 806.28125 140.71875 L 809.0625 151.125 L 813.9375 160.375 L 815.84375 161.03125 L 817.46875 159.6875 L 818.25 157.46875 L 811.25 149.84375 L 811.4375 145.90625 L 812.96875 145.21875 L 813.375 142.90625 L 799.6875 123.5625 L 798.625 122.59375 z M 840.03125 132.03125 L 838.8125 133.5625 L 838.90625 135.96875 L 840.0625 135.875 L 841.96875 132.5 L 840.03125 132.03125 z M 840.0625 137.8125 L 837.75 137.90625 L 837.75 142.15625 L 839.09375 142.625 L 840.0625 141.09375 L 840.0625 137.8125 z M 505.125 151.5625 L 502.40625 154.8125 L 502.40625 156.3125 L 503.3125 156.65625 L 505.0625 156.71875 L 507.96875 154.34375 L 508.375 153.53125 L 506.625 151.71875 L 505.125 151.5625 z "
   id="ru" />









<path
   id="path9020"
   d="M881.29,38.39l-2.36,1.54l-0.56,1.96l1.11,1.26l2.5-0.84l2.5,0.84l1.39,0.42l-0.14-4.62L881.29,38.39L881.29,38.39z"
   style="fill:#cccccc" />




<path
   d="M 129.875 26.21875 L 99.03125 32.1875 L 97.78125 41.625 L 104.4375 45.625 L 101.96875 52.09375 L 93.125 44.875 L 84.71875 46.875 L 86.4375 56.34375 L 95.59375 58.8125 L 96.0625 60.8125 L 82.5 65.03125 L 74.84375 77.71875 L 77.5625 91.15625 L 82 94.125 L 85.46875 90.90625 L 86.4375 92.875 L 82.25 97.875 L 65.96875 105.3125 L 55.59375 107.8125 L 55.34375 111.53125 L 79.28125 104.59375 L 89.15625 101.84375 L 98.28125 90.65625 L 108.40625 83.9375 L 103.21875 92.625 L 108.90625 93.375 L 118.53125 89.15625 L 120.25 96.125 L 126.90625 97.625 L 133.84375 104.3125 L 134.3125 109.28125 L 133.34375 110.53125 L 134.5625 115.25 L 136.28125 115.25 L 136.53125 107.28125 L 138.5 107.28125 L 139 126.9375 L 143.9375 122.6875 L 140.46875 102.3125 L 135.3125 102.3125 L 129.625 95.09375 L 157.5 47.84375 L 129.875 26.21875 z M 1.46875 99.71875 L 1.46875 102.21875 L 2.625 102.21875 L 3.125 100.875 L 1.46875 99.71875 z M 10.9375 109.75 L 9.625 110.25 L 9.625 112.78125 L 11.125 113.78125 L 12.28125 111.59375 L 10.9375 109.75 z M 49.65625 110.25 L 49.5 113.28125 L 51.65625 112.78125 L 51.65625 111.4375 L 49.65625 110.25 z M 46.34375 111.59375 L 42.03125 113.78125 L 42.6875 116.125 L 44.34375 114.78125 L 47.65625 113.28125 L 46.34375 111.59375 z M 19.25 113.125 L 18.25 114.9375 L 20.0625 116.78125 L 22.0625 114.28125 L 19.25 113.125 z M 25.40625 113.78125 L 24.90625 115.125 L 25.21875 117.625 L 28.375 114.4375 L 25.40625 113.78125 z M 148.75 158.34375 L 147.75 162.375 L 144.28125 160.09375 L 142.53125 160.09375 L 141.53125 164.375 L 129.3125 191.71875 L 132.5625 215.5625 L 136.5625 217.59375 L 137.3125 224.125 L 145.53125 224.125 L 153.5 230.125 L 169.1875 231.625 L 170.90625 239.65625 L 173.40625 241.4375 L 176.90625 237.90625 L 179.625 239.15625 L 182.125 250.71875 L 186.375 253.46875 L 189.84375 246.9375 L 200.5625 239.15625 L 207.53125 242.40625 L 213.5 242.90625 L 213.75 239.15625 L 226.21875 239.40625 L 228.6875 242.15625 L 229.1875 248.4375 L 227.71875 251.9375 L 229.4375 257.96875 L 233.1875 257.96875 L 236.9375 252.1875 L 235.4375 249.4375 L 233.9375 243.40625 L 236.1875 236.625 L 246.40625 227.875 L 254.125 225.59375 L 253.125 218.3125 L 263.84375 206.78125 L 274.53125 205 L 272.8125 199 L 283.25 192.96875 L 283.25 184.9375 L 282.25 184.4375 L 278.53125 185.6875 L 278.03125 190.625 L 265.59375 190.78125 L 255.84375 197.25 L 240.5625 202.25 L 238.125 199.25 L 245.0625 188.75 L 241.625 185.46875 L 239.3125 181.03125 L 234.46875 177.15625 L 229.21875 176.71875 L 219.3125 169.9375 L 148.75 158.34375 z M 10 248.6875 L 9.875 251.03125 L 11.90625 252.40625 L 13.125 251.3125 L 10 248.6875 z M 15.28125 252.125 L 13.375 253.5 L 15.03125 255.5625 L 16.90625 253.90625 L 15.28125 252.125 z M 19.09375 255.40625 L 17.46875 257.59375 L 18 258.96875 L 20.3125 257.875 L 19.09375 255.40625 z M 21.8125 259.65625 L 20.875 265.125 L 21.8125 267.15625 L 24.9375 266.21875 L 26.5625 263.46875 L 23.15625 260.3125 L 21.8125 259.65625 z "
   id="us"
   inkscape:label="#path12823"
   style="fill:#cccccc" />





<path
   id="path13593"
   d="M622.76,499.62l-0.15,4.29l5.94,1.38l1.37-3.53l-2.13,0.61l-2.74,0.61l-0.76-3.22L622.76,499.62L622.76,499.62z"
   style="fill:#cccccc" />
<path
   id="path13595"
   d="M613.01,398.99l-1.52,1.99l0.3,2.15l3.2-2.61L613.01,398.99L613.01,398.99z"
   style="fill:#cccccc" />
<path
   id="path13597"
   d="M607.38,402.37l-2.28,0.15l-0.15,1.99l1.52,0.31l2.28-1.07L607.38,402.37L607.38,402.37z"
   style="fill:#cccccc" />
<path
   id="mg"
   d="M592.3,372.92l-2.13,5.06l-3.65,6.44l-6.39,0.46l-2.74,3.22l0.46,9.82l-3.96,4.6l0.46,7.82l3.35,3.83l3.96-0.46l3.96-2.92l-0.91-4.6l9.13-15.8l-1.83-1.99l1.83-3.83l1.98,0.61l0.61-1.53l-1.83-7.82l-1.07-3.22L592.3,372.92L592.3,372.92z"
   style="fill:#cccccc"
   inkscape:label="#path13599" />
<path
   id="path13601"
   d="M577.69,371.23l0.46,1.53l1.98,0.31l0.76-1.99L577.69,371.23L577.69,371.23z"
   style="fill:#cccccc" />
<path
   id="path13603"
   d="M580.58,374.3l0.76,1.69h1.22l0.61-2.15L580.58,374.3L580.58,374.3z"
   style="fill:#cccccc" />
<path
   id="path13605"
   d="M602.35,358.34l-0.61,1.23l1.67,1.38l1.22-1.38L602.35,358.34L602.35,358.34z"
   style="fill:#cccccc" />
<path
   id="path13607"
   d="M610.88,349.14l-1.83,1.23l1.37,2.15h1.83L610.88,349.14L610.88,349.14z"
   style="fill:#cccccc" />
<path
   id="path13609"
   d="M611.64,354.51l-1.22,1.38l0.91,1.38l1.67,0.31l0.15-2.92L611.64,354.51L611.64,354.51z"
   style="fill:#cccccc" />
<path
   style="fill:#cccccc"
   d="M 656.40625 320.75 L 656.6875 323.375 L 658.375 323.96875 L 658.65625 321.6875 L 656.40625 320.75 z M 658.53125 326.28125 L 658.375 329.5 L 659.59375 330.125 L 660.65625 327.96875 L 658.53125 326.28125 z M 658.84375 332.5625 L 657.78125 333.625 L 659 334.71875 L 660.5 333.625 L 658.84375 332.5625 z "
   id="mv"
   inkscape:label="#path13611" />


<path
   id="path13617"
   d="M372.64,217.02l-1.36,1.37l2.44,1.37l0.27-1.91L372.64,217.02L372.64,217.02z"
   style="fill:#cccccc" />
<path
   id="path13619"
   d="M379.97,216.2l-1.63,1.09l1.36,1.09l2.17-0.55L379.97,216.2L379.97,216.2z"
   style="fill:#cccccc" />
<path
   id="path13621"
   d="M381.05,220.03l-0.81,2.19l1.08,1.37l1.36-1.09L381.05,220.03L381.05,220.03z"
   style="fill:#cccccc" />
<path
   id="path13623"
   d="M387.56,224.4l-0.54,1.37l0.81,0.82l2.17-1.37L387.56,224.4L387.56,224.4z"
   style="fill:#cccccc" />
<path
   id="path13625"
   d="M408.18,236.42l-1.08,1.37l1.08,1.37l1.63-0.82L408.18,236.42L408.18,236.42z"
   style="fill:#cccccc" />
<path
   id="path13627"
   d="M415.62,253.73l-1.75,1.01l0.81,0.82L415.62,253.73L415.62,253.73z"
   style="fill:#cccccc" />
<path
   id="path13629"
   d="M409.54,253.92l-2.17,0.55l1.08,1.64h1.63L409.54,253.92L409.54,253.92z"
   style="fill:#cccccc" />
<path
   id="path13631"
   d="M404.38,252.28l-1.36,1.37l1.9,1.64l1.08-2.46L404.38,252.28L404.38,252.28z"
   style="fill:#cccccc" />
<path
   id="path13633"
   d="M387.56,290.54l-1.9,1.09l1.36,1.09l1.63-0.82L387.56,290.54L387.56,290.54z"
   style="fill:#cccccc" />
<path
   id="path13637"
   d="M392.23,292.74l-1.24,1.1l0.88,1.63l2.12-0.95L392.23,292.74L392.23,292.74z"
   style="fill:#cccccc" />
<path
   id="path13639"
   d="M389.52,295.83l-1.59,0.95l1.71,2.29l1.35-0.71L389.52,295.83L389.52,295.83z"
   style="fill:#cccccc" />




<path
   id="path13649"
   d="M27.25,402.68l-1.9-0.14l-0.14,1.78l1.49,0.96l1.77-1.09L27.25,402.68L27.25,402.68z"
   style="fill:#cccccc" />
<path
   id="path13651"
   d="M33.77,404.6l-2.72,1.78l2.04,2.46l1.77-0.41l0.95-1.23L33.77,404.6L33.77,404.6z"
   style="fill:#cccccc" />
<path
   id="path13655"
   d="M276.6,283.37l-1.5,0.62l0.53,1.33l1.76-1.15l-0.35-0.36L276.6,283.37L276.6,283.37z"
   style="fill:#cccccc" />
<path
   id="path13657"
   d="M279.07,284.88l-0.88,1.87l1.06,1.42l1.32-1.15L279.07,284.88L279.07,284.88z"
   style="fill:#cccccc" />
<path
   id="path13659"
   d="M282.07,290.03l-1.06,0.98l0.79,1.6l1.5-0.44L282.07,290.03L282.07,290.03z"
   style="fill:#cccccc" />
<path
   id="path13661"
   d="M281.98,294.03l-0.71,1.51l1.15,1.24l1.5-0.8L281.98,294.03L281.98,294.03z"
   style="fill:#cccccc" />
<path
   id="path13663"
   d="M282.07,297.85l-1.23,0.89l0.97,1.78l1.59-0.89L282.07,297.85L282.07,297.85z"
   style="fill:#cccccc" />
<path
   id="path13665"
   d="M280.57,301.31l-1.15,1.15l0.44,0.71h1.41l0.44-1.16L280.57,301.31L280.57,301.31z"
   style="fill:#cccccc" />
<path
   id="path13667"
   d="M282.24,304.78l-1.06,0.98l-1.15,0.18v1.42l2.12,1.95l0.88-1.42l0.53-1.6l-0.18-1.33L282.24,304.78L282.24,304.78z"
   style="fill:#cccccc" />
<path
   id="pr"
   d="M271.05,281.06l-2.64-0.89l-2.12,1.33l1.06,1.24l3.61,0.53L271.05,281.06L271.05,281.06z"
   style="fill:#cccccc"
   inkscape:label="#path13669" />
<path
   id="path15205"
   d="M250.87,275.38l-1.67,1.71l1.91,0.78l0.28,2.39l-4.23,0.37l0.43,2.3l1.23,0.09l0.71-1.06l4.94,0.16l0.89,1.71l1.14-1.34l3.33-0.9l2.93,0.62l0.34-1.77l-5.28-3.45l-3.42-1.28L250.87,275.38L250.87,275.38z"
   style="fill:#cccccc" />
<path
   id="path13671"
   d="M263.11,280.44l-5.29-3.46l-2.5-0.85l-0.84,6l0.88,1.69l1.15-1.33l3.35-0.89l2.91,0.62L263.11,280.44L263.11,280.44z"
   style="fill:#cccccc" />
<path
   id="path13673"
   d="M250.86,275.38l3.44,0.36l-0.41,4.22l-0.34,2.22l-4.01-0.22l-0.71,1.07l-1.23-0.09l-0.44-2.31l4.23-0.35l-0.26-2.4l-1.94-0.8L250.86,275.38L250.86,275.38z"
   style="fill:#cccccc" />
<path
   id="path15980"
   d="M307.95,508.18l-2.63-0.29l-2.62,1.76l1.9,2.06L307.95,508.18L307.95,508.18z"
   style="fill:#cccccc" />
<path
   id="path15984"
   d="M310.57,506.86l-0.87,2.79l-2.48,2.2l0.15,0.73l4.23-1.62l1.75-2.2L310.57,506.86L310.57,506.86z"
   style="fill:#cccccc" />
<path
   id="is"
   d="M406.36,117.31l-1.96-1.11l-2.64,1.67l-2.27,2.1l0.06,1.17l2.94,0.37l-0.18,2.1l-1.04,1.05l0.25,0.68l2.94,0.19v3.4l4.23,0.74l2.51,1.42l2.82,0.12l4.84-2.41l3.74-4.94l0.06-3.34l-2.27-1.92l-1.9-1.61l-0.86,0.62l-1.29,1.67l-1.47-0.19l-1.47-1.61l-1.9,0.18l-2.76,2.29l-1.66,1.79l-0.92-0.8l-0.06-1.98l0.92-0.62L406.36,117.31L406.36,117.31z"
   inkscape:label="#path15986"
   style="fill:#cccccc" />
<path
   id="path15988"
   d="M488.26,53.96l-1.65-1.66l-3.66,1.78h-6.72L475.17,58l3.77,3.33l1.65-0.24l2.36-4.04l2,1.43l-1.42,2.85l-0.71,4.16l1.65,2.61l3.54-5.94l4.6-5.59l-1.77-1.54L488.26,53.96L488.26,53.96z"
   style="fill:#cccccc" />
<path
   id="path15990"
   d="M490.26,46.83l-2.95,2.73l1.77,2.73h3.18l1.3,1.78l3.89,2.02l4.48-2.61l3.07-2.61l-1.06-2.14l-3.07-1.78l-2.24,2.02l-1.53-1.9l-1.18,0.12l-1.53,3.33l-2.24-2.26l-0.24-1.54L490.26,46.83L490.26,46.83z"
   style="fill:#cccccc" />
<path
   id="path15992"
   d="M496.98,59.07l-2.36,2.14l-2,1.54l0.94,1.66l1.89,0.59l3.07-1.43l1.42-1.78l-1.3-2.14L496.98,59.07L496.98,59.07z"
   style="fill:#cccccc" />













<path
   id="lk"
   d="M680.54,308.05l0.25,2.72l0.25,1.98l-1.47,0.25l0.74,4.45l2.21,1.24l3.43-1.98l-0.98-4.69l0.25-1.73l-3.19-2.96L680.54,308.05L680.54,308.05z"
   inkscape:label="#path16022"
   style="fill:#cccccc" />
<path
   id="cu"
   d="M220.85,266.92v1.27l5.32,0.1l2.51-1.46l0.39,1.07l5.22,1.27l4.64,4.19l-1.06,1.46l0.19,1.66l3.87,0.97l3.87-1.75l1.74-1.75l-2.51-1.27l-12.95-7.6l-4.54-0.49L220.85,266.92L220.85,266.92z"
   inkscape:label="#path16828"
   style="fill:#cccccc" />
<path
   id="path16830"
   d="M239.61,259.13l-1.26-0.39l-0.1,2.43l1.55,1.56l1.06-1.56L239.61,259.13L239.61,259.13z"
   style="fill:#cccccc" />
<path
   id="path16832"
   d="M242.12,262.93l-1.74,0.97l1.64,2.34l0.87-1.17L242.12,262.93L242.12,262.93z"
   style="fill:#cccccc" />
<path
   id="path16834"
   d="M247.73,264.68l-1.84-0.1l0.19,1.17l1.35,1.95l1.16-1.27L247.73,264.68L247.73,264.68z"
   style="fill:#cccccc" />
<path
   id="path16836"
   d="M246.86,262.35l-3-1.27l-0.58-3.02l1.16-0.49l1.16,2.34l1.16,0.88L246.86,262.35L246.86,262.35z"
   style="fill:#cccccc" />
<path
   id="path16838"
   d="M243.96,256.21l-1.55-0.39l-0.29-1.95l-1.64-0.58l1.06-1.07l1.93,0.68l1.45,0.88L243.96,256.21L243.96,256.21z"
   style="fill:#cccccc" />
<path
   id="path17598"
   d="M238.93,279.59l-3.48,0.88v0.97l2.03,1.17h2.13l1.35-1.56L238.93,279.59L238.93,279.59z"
   style="fill:#cccccc" />


<path
   style="fill:#cccccc"
   d="M 230.1875 335.84375 L 225.46875 338.78125 L 225.125 343.15625 L 224.1875 344.59375 L 227.15625 347.4375 L 225.875 348.84375 L 226.15625 352.4375 L 231.5 353.71875 L 239.5625 344.15625 L 239.5625 340.84375 L 235.6875 340.59375 L 230.1875 335.84375 z M 194.96875 338.1875 L 194.34375 340.9375 L 193.1875 342.09375 L 194 343.5 L 196.03125 342.71875 L 197 341.03125 L 196.375 339.25 L 194.96875 338.1875 z "
   id="ec"
   inkscape:label="#path13653" />





















<path
   id="path19124"
   d="M133.83,128.41l-1.7,3.26l0.59,2.31l1.11,0.69l-0.26,0.94l-1.19,0.34l0.34,3.43l1.28,1.29l1.02-1.11l-1.28-3.34l0.76-2.66l1.87-2.49l-1.36-2.31L133.83,128.41L133.83,128.41z"
   style="fill:#cccccc" />
<path
   id="path19126"
   d="M139.45,147.95l-1.53,0.6l2.81,3.26l0.68,3.86l2.81,3l2.38-0.43v-3.94l-2.89-1.8L139.45,147.95L139.45,147.95z"
   style="fill:#cccccc" />
<path
   id="gt"
   d="M194.88,291.52l5.93,4.34l5.98-7.43l-1.02-1.54l-2.04-0.07v-4.35l-1.53-0.93l-4.63,1.38l1.77,4.08L194.88,291.52L194.88,291.52z"
   style="fill:#cccccc"
   inkscape:label="#path19130" />
<path
   id="hn"
   d="M207.55,288.78l9.24-0.35l2.74,3.26l-1.71-0.39l-3.29,0.14l-4.3,4.04l-1.84,4.09l-1.21-0.64l-0.01-4.48l-2.66-1.78L207.55,288.78L207.55,288.78z"
   style="fill:#cccccc"
   inkscape:label="#path19132" />
<path
   id="sv"
   d="M201.65,296.27l4.7,2.34l-0.07-3.71l-2.41-1.47L201.65,296.27L201.65,296.27z"
   style="fill:#cccccc"
   inkscape:label="#path19134" />
<path
   id="ni"
   d="M217.74,292.11l2.19,0.44l0.07,4.49l-2.55,7.28l-6.87-0.68l-1.53-3.51l2.04-4.26l3.87-3.6L217.74,292.11L217.74,292.11z"
   style="fill:#cccccc"
   inkscape:label="#path19136" />
<path
   id="cr"
   d="M217.38,304.98l1.39,2.72l1.13,1.5l-1.52,4.51l-2.9-2.04l-4.74-4.34v-2.87L217.38,304.98L217.38,304.98z"
   style="fill:#cccccc"
   inkscape:label="#path19138" />
<path
   id="pa"
   d="M220.59,309.61l-1.46,4.56l4.82,1.25l2.99,0.59l0.51-3.53l3.21-1.62l2.85,1.47l1.12,1.79l1.36-0.16l1.07-3.25l-3.56-1.47l-2.7-1.47l-2.7,1.84l-3.21,1.62l-3.28-1.32L220.59,309.61L220.59,309.61z"
   style="fill:#cccccc"
   inkscape:label="#path19140" />
<path
   id="co"
   d="M253.73,299.78l-2.06-0.21l-13.62,11.23l-1.44,3.95l-1.86,0.21l0.83,8.73l-4.75,11.65l5.16,4.37l6.61,0.42l4.54,6.66l6.6,0.21l-0.21,4.99H256l2.68-9.15l-2.48-3.12l0.62-5.82l5.16-0.42l-0.62-13.52l-11.56-3.74l-2.68-7.28L253.73,299.78L253.73,299.78z"
   inkscape:label="#path19142"
   style="fill:#cccccc" />
<path
   id="ve"
   d="M250.46,305.92l0.44,2.59l3.25,1.03l0.74-4.77l3.43-3.55l3.43,4.02l7.89,2.15l6.68-1.4l4.55,5.61l3.43,2.15l-3.76,5.73l1.26,4.34l-2.15,2.66l-2.23,1.87l-4.83-2.43l-1.11,1.12v3.46l3.53,1.68l-2.6,2.81l-2.6,2.81l-3.43-0.28l-3.45-3.79l-0.73-14.26l-11.78-4.02l-2.14-6.27L250.46,305.92L250.46,305.92z"
   style="fill:#cccccc"
   inkscape:label="#path19144" />
<path
   id="gy"
   d="M285.05,314.13l7.22,6.54l-2.87,3.32l-0.23,1.97l3.77,3.89l-0.09,3.74l-6.56,2.5l-3.93-5.31l0.84-6.38l-1.68-4.75L285.05,314.13L285.05,314.13z"
   style="fill:#cccccc"
   inkscape:label="#path19146" />
<path
   id="sr"
   d="M293.13,321.14l2.04,1.87l3.16-1.96l2.88,0.09l-0.37,1.12l-1.21,2.52l-0.19,6.27l-5.75,2.34l0.28-4.02l-3.71-3.46l0.19-1.78L293.13,321.14L293.13,321.14z"
   style="fill:#cccccc"
   inkscape:label="#path19148" />
<path
   id="gf"
   d="M302.13,321.8l5.85,3.65l-3.06,6.08l-1.11,1.4l-3.25-1.87l0.09-6.55L302.13,321.8L302.13,321.8z"
   style="fill:#cccccc"
   inkscape:label="#path19150" />

<path
   id="pe"
   d="M225.03,349.52l-1.94,1.96l0.13,3.13l16.94,30.88l17.59,11.34l2.72-4.56l0.65-10.03l-1.42-6.25l-4.79-8.08l-2.85,0.91l-1.29,1.43l-5.69-6.52l1.42-7.69l6.6-4.3l-0.52-4.04l-6.72-0.26l-3.49-5.86l-1.94-0.65l0.13,3.52l-8.66,10.29l-6.47-1.56L225.03,349.52L225.03,349.52z"
   inkscape:label="#path19154"
   style="fill:#cccccc" />
<path
   id="bo"
   d="M258.71,372.79l8.23-3.59l2.72,0.26l1.81,7.56l12.54,4.17l2.07,6.39l5.17,0.65l2.2,5.47l-1.55,4.95l-8.41,0.65l-3.1,7.95l-6.6-0.13l-2.07-0.39l-3.81,3.7l-1.88-0.18l-6.47-14.99l1.79-2.68l0.63-10.6l-1.6-6.31L258.71,372.79L258.71,372.79z"
   style="fill:#cccccc"
   inkscape:label="#path19156" />
<path
   id="py"
   d="M291.76,399.51l2.2,2.4l-0.26,5.08l6.34-0.39l4.79,6.13l-0.39,5.47l-3.1,4.69l-6.34,0.26l-0.26-2.61l1.81-4.3l-6.21-3.91h-5.17l-3.88-4.17l2.82-8.06L291.76,399.51L291.76,399.51z"
   style="fill:#cccccc"
   inkscape:label="#path19158" />
<path
   id="uy"
   d="M300.36,431.93l-2.05,2.19l0.85,11.78l6.44,1.87l8.19-8.21L300.36,431.93L300.36,431.93z"
   style="fill:#cccccc"
   inkscape:label="#path19160" />
<path
   id="ar"
   d="M305.47,418.2l1.94,1.82l-7.37,10.95l-2.59,2.87l0.9,12.51l5.69,6.91l-4.78,8.34l-3.62,1.56h-4.14l1.16,6.51l-6.47,2.22l1.55,5.47l-3.88,12.38l4.79,3.91l-2.59,6.38l-4.4,6.91l2.33,4.82l-5.69,0.91l-4.66-5.73l-0.78-17.85l-7.24-30.32l2.19-10.6l-4.66-13.55l3.1-17.59l2.85-3.39l-0.7-2.57l3.66-3.34l8.16,0.56l4.56,4.87l5.27,0.09l5.4,3.3l-1.59,3.72l0.38,3.76l7.65-0.36L305.47,418.2L305.47,418.2z"
   inkscape:label="#path19162"
   style="fill:#cccccc" />
<path
   id="path19164"
   d="M285.04,514.1l-4.27,9.38l7.37,0.78l0.13-6.25L285.04,514.1L285.04,514.1z"
   style="fill:#cccccc" />
<path
   id="path19166"
   d="M288.92,518.79l0.26,5.73l4.4-0.39l3.75-2.48l-6.34-1.3L288.92,518.79L288.92,518.79z"
   style="fill:#cccccc" />
<path
   id="cl"
   d="M283.59,512.63l-3.21,3.55l-0.39,4.17l-6.21-3.52l-6.6-9.51l-1.94-3.39l2.72-3.52l-0.26-4.43l-3.1-1.3l-2.46-1.82l0.52-2.48l3.23-0.91l0.65-14.33l-5.04-2.87l-3.29-74.59l0.85-1.48l6.44,14.85l2.06,0.04l0.67,2.37l-2.74,3.32l-3.15,17.87l4.48,13.76l-2.07,10.42l7.3,30.64l0.77,17.92l5.23,6.05L283.59,512.63L283.59,512.63z"
   inkscape:label="#path19168"
   style="fill:#cccccc" />
<path
   id="path19170"
   d="M262.28,475.14l-1.29,1.95l0.65,3.39l1.29,0.13l0.65-4.3L262.28,475.14L262.28,475.14z"
   style="fill:#cccccc" />
<path
   id="br"
   d="M314.24,438.85l6.25-12.02l0.23-10.1l11.66-7.52h6.53l5.13-8.69l0.93-16.68l-2.1-4.46l12.36-11.28l0.47-12.45l-16.79-8.22l-20.28-6.34l-9.56-0.94l2.57-5.4l-0.7-8.22l-2.09-0.69l-3.09,6.14l-1.62,2.03l-4.16-1.84l-13.99,4.93l-4.66-5.87l0.75-6.13l-4.4,4.48l-4.86-2.62l-0.49,0.69l0.01,2.13l4.19,2.25l-6.29,6.63l-3.97-0.04l-4.02-4.09l-4.55,0.14l-0.56,4.86l2.61,3.17l-3.08,9.87l-3.6,0.28l-5.73,3.62l-1.4,7.11l4.97,5.32l0.91-1.03l3.49-0.94l2.98,5.02l8.53-3.66l3.31,0.19l2.28,8.07l12.17,3.86l2.1,6.44l5.18,0.62l2.47,6.15l-1.67,5.47l2.18,2.86l-0.32,4.26l5.84-0.55l5.35,6.76l-0.42,4.75l3.17,2.68l-7.6,11.51L314.24,438.85L314.24,438.85z"
   inkscape:label="Brazil"
   style="fill:#cccccc" />
<path
   id="bz"
   d="M204.56,282.4l-0.05,3.65h0.84l2.86-5.34h-1.94L204.56,282.4L204.56,282.4z"
   style="fill:#cccccc"
   inkscape:label="#path20174" />


<path
   id="mn"
   d="M673.8,170.17l5.82-7.72l6.99,3.23l4.75,1.27l5.82-5.34l-3.95-2.91l2.6-3.67l7.76,2.74l2.69,4.41l4.86,0.13l2.54-1.89l5.23-0.21l1.14,1.94l8.69,0.44l5.5-5.61l7.61,0.8l-0.44,7.64l3.33,0.76l4.09-1.86l4.33,2.14l-0.1,1.08l-3.14,0.09l-3.27,6.86l-2.54,0.25l-9.88,12.91l-10.09,4.45l-6.31,0.49l-5.24-3.38l-6.7,3.58l-6.6-2.05l-1.87-4.79l-12.5-0.88l-6.4-10.85l-3.11-0.2L673.8,170.17L673.8,170.17z"
   style="fill:#cccccc"
   inkscape:label="#path1302" />
<path
   id="kp"
   d="M778.28,194.27l1.84,0.77l0.56,6.44l3.65,0.21l3.44-4.03l-1.19-1.06l0.14-4.32l3.16-3.82l-1.61-2.9l1.05-1.2l0.58-3l-1.83-0.83l-1.56,0.79l-1.93,5.86l-3.12-0.27l-3.61,4.26L778.28,194.27L778.28,194.27z"
   style="fill:#cccccc"
   inkscape:label="#path2064" />
<path
   id="kr"
   d="M788.34,198.2l6.18,5.04l1.05,4.88l-0.21,2.62l-3.02,3.4l-2.6,0.14l-2.95-6.37l-1.12-3.04l1.19-0.92l-0.28-1.27l-1.47-0.66L788.34,198.2L788.34,198.2z"
   style="fill:#cccccc"
   inkscape:label="#path2066" />
<path
   id="kz"
   d="M576.69,188.62l4.1-1.75l4.58-0.16l0.32,7h-2.68l-2.05,3.34l2.68,4.45l3.95,2.23l0.36,2.55l1.45-0.48l1.34-1.59l2.21,0.48l1.11,2.23h2.84v-2.86l-1.74-5.09l-0.79-4.13l5.05-2.23l6.79,1.11l4.26,4.29l9.63-0.95l5.37,7.63l6.31,0.32l1.74-2.86l2.21-0.48l0.32-3.18l3.31-0.16l1.74,2.07l1.74-4.13l14.99,2.07l2.52-3.34l-4.26-5.25l5.68-12.4l4.58,0.32l3.16-7.63l-6.31-0.64l-3.63-3.5l-10,1.16l-12.88-12.45l-4.54,4.03l-13.77-6.25l-16.89,8.27l-0.47,5.88l3.95,4.61l-7.7,4.35l-9.99-0.22l-2.09-3.07l-7.83-0.43l-7.42,4.77l-0.16,6.52L576.69,188.62L576.69,188.62z"
   inkscape:label="#path2826"
   style="fill:#cccccc" />
<path
   id="tm"
   d="M593.85,207.59l-0.62,2.63h-4.15v3.56l4.46,2.94l-1.38,4.03v1.86l1.85,0.31l2.46-3.25l5.54-1.24l11.84,4.49l0.15,3.25l6.61,0.62l7.38-7.75l-0.92-2.48l-4.92-1.08l-13.84-8.99l-0.62-3.25h-5.23l-2.31,4.34h-2.31L593.85,207.59L593.85,207.59z"
   style="fill:#cccccc"
   inkscape:label="#path3587" />
<path
   id="uz"
   d="M628.92,219.06l3.08,0.16v-5.27l-2.92-1.7l4.92-6.2h2l2,2.33l5.23-2.01l-7.23-2.48l-0.28-1.5l-1.72,0.42l-1.69,2.94l-7.29-0.24l-5.35-7.57l-9.4,0.93l-4.48-4.44l-6.2-1.05l-4.5,1.83l2.61,8.68l0.03,2.92l1.9,0.04l2.33-4.44l6.2,0.08l0.92,3.41l13.29,8.82l5.14,1.18L628.92,219.06L628.92,219.06z"
   style="fill:#cccccc"
   inkscape:label="#path3589" />
<path
   id="tj"
   d="M630.19,211.84l4.11-5.1h1.55l0.54,1.14l-1.9,1.38v1.14l1.25,0.9l6.01,0.36l1.96-0.84l0.89,0.18l0.6,1.92l3.57,0.36l1.79,3.78l-0.54,1.14l-0.71,0.06l-0.71-1.44l-1.55-0.12l-2.68,0.36l-0.18,2.52l-2.68-0.18l0.12-3.18l-1.96-1.92l-2.98,2.46l0.06,1.62l-2.62,0.9h-1.55l0.12-5.58L630.19,211.84L630.19,211.84z"
   style="fill:#cccccc"
   inkscape:label="#path4349" />
<path
   id="kg"
   d="M636.81,199.21l-0.31,2.53l0.25,1.56l8.7,2.92l-7.64,3.08l-0.87-0.72l-1.65,1.06l0.08,0.58l0.88,0.4l5.36,0.14l2.72-0.82l3.49-4.4l4.37,0.76l5.27-7.3l-14.1-1.92l-1.95,4.73l-2.46-2.64L636.81,199.21L636.81,199.21z"
   style="fill:#cccccc"
   inkscape:label="#path4351" />
<path
   id="af"
   d="M614.12,227.05l1.59,12.46l3.96,0.87l0.37,2.24l-2.84,2.37l5.29,4.27l10.28-3.7l0.82-4.38l6.47-4.04l2.48-9.36l1.85-1.99l-1.92-3.34l6.26-3.87l-0.8-1.12l-2.89,0.18l-0.26,2.66l-3.88-0.04l-0.07-3.55l-1.25-1.49l-2.1,1.91l0.06,1.75l-3.17,1.2l-5.85-0.37l-7.6,7.96L614.12,227.05L614.12,227.05z"
   inkscape:label="#path5112"
   style="fill:#cccccc" />
<path
   id="pk"
   d="M623.13,249.84l2.6,3.86l-0.25,1.99l-3.46,1.37l-0.25,3.24h3.96l1.36-1.12h7.54l6.8,5.98l0.87-2.87h5.07l0.12-3.61l-5.19-4.98l1.11-2.74l5.32-0.37l7.17-14.95l-3.96-3.11l-1.48-5.23l9.64-0.87l-5.69-8.1l-3.03-0.82l-1.24,1.5l-0.93,0.07l-5.69,3.61l1.86,3.12l-2.1,2.24l-2.6,9.59l-6.43,4.11l-0.87,4.49L623.13,249.84L623.13,249.84z"
   inkscape:label="#path5114"
   style="fill:#cccccc" />
<path
   id="in"
   d="M670.98,313.01l4.58-2.24l2.72-9.84l-0.12-12.08l15.58-16.82v-3.99l3.21-1.25l-0.12-4.61l-3.46-6.73l1.98-3.61l4.33,3.99l5.56,0.25v2.24l-1.73,1.87l0.37,1l2.97,0.12l0.62,3.36h0.87l2.23-3.99l1.11-10.46l3.71-2.62l0.12-3.61l-1.48-2.87l-2.35-0.12l-9.2,6.08l0.58,3.91l-6.46-0.02l-2.28-2.79l-1.24,0.16l0.42,3.88l-13.97-1l-8.66-3.86l-0.46-4.75l-5.77-3.58l-0.07-7.37l-3.96-4.53l-9.1,0.87l0.99,3.96l4.46,3.61l-7.71,15.78l-5.16,0.39l-0.85,1.9l5.08,4.7l-0.25,4.75l-5.19-0.08l-0.56,2.36l4.31-0.19l0.12,1.87l-3.09,1.62l1.98,3.74l3.83,1.25l2.35-1.74l1.11-3.11l1.36-0.62l1.61,1.62l-0.49,3.99l-1.11,1.87l0.25,3.24L670.98,313.01L670.98,313.01z"
   inkscape:label="#path5116"
   style="fill:#cccccc" />
<path
   id="np"
   d="M671.19,242.56l0.46,4.27l8.08,3.66l12.95,0.96l-0.49-3.13l-8.65-2.38l-7.34-4.37L671.19,242.56L671.19,242.56z"
   style="fill:#cccccc"
   inkscape:label="#path5876" />
<path
   id="bt"
   d="M695.4,248.08l1.55,2.12l5.24,0.04l-0.53-2.9L695.4,248.08L695.4,248.08z"
   style="fill:#cccccc"
   inkscape:label="#path6636" />
<path
   id="bd"
   d="M695.57,253.11l-1.31,2.37l3.4,6.46l0.1,5.04l0.62,1.35l3.99,0.07l2.26-2.17l1.64,0.99l0.33,3.07l1.31-0.82l0.08-3.92l-1.1-0.13l-0.69-3.33l-2.78-0.1l-0.69-1.85l1.7-2.27l0.03-1.12h-4.94L695.57,253.11L695.57,253.11z"
   style="fill:#cccccc"
   inkscape:label="#path7396" />
<path
   id="path8157"
   d="M729.44,303.65l-2.77-4.44l2.01-2.82l-1.9-3.49l-1.79-0.34l-0.34-5.86l-2.68-5.19l-0.78,1.24l-1.79,3.04l-2.24,0.34l-1.12-1.47l-0.56-3.95l-1.68-3.16l-6.84-6.45l1.68-1.11l0.31-4.67l2.5-4.2l1.08-10.45l3.62-2.47l0.12-3.81l2.17,0.72l3.42,4.95l-2.54,5.44l1.71,4.27l4.23,1.66l0.77,4.65l5.68,0.88l-1.57,2.71l-7.16,2.82l-0.78,4.62l5.26,6.76l0.22,3.61l-1.23,1.24l0.11,1.13l3.92,5.75l0.11,5.97L729.44,303.65L729.44,303.65z"
   style="fill:#cccccc" />
<path
   id="kh"
   d="M730.03,270.47l3.24,4.17v5.07l1.12,0.56l5.15-2.48l1.01,0.34l6.15,7.1l-0.22,4.85l-2.01-0.34l-1.79-1.13l-1.34,0.11l-2.35,3.94l0.45,2.14l1.9,1.01l-0.11,2.37l-1.34,0.68l-4.59-3.16v-2.82l-1.9-0.11l-0.78,1.24l-0.4,12.62l2.97,5.42l5.26,5.07l-0.22,1.47l-2.8-0.11l-2.57-3.83h-2.69l-3.36-2.71l-1.01-2.82l1.45-2.37l0.5-2.14l1.58-2.8l-0.07-6.44l-3.86-5.58l-0.16-0.68l1.25-1.26l-0.29-4.43l-5.14-6.51l0.6-3.75L730.03,270.47L730.03,270.47z"
   style="fill:#cccccc"
   inkscape:label="#path8159" />

<path
   id="path8163"
   d="M740.48,299.47l4.09,4.37l7.61-5.64l0.67-8.9l-3.93,2.71l-2.04-1.14l-2.77-0.37l-1.55-1.09l-0.75,0.04l-2.03,3.33l0.33,1.54l2.06,1.15l-0.25,3.13L740.48,299.47L740.48,299.47z"
   style="fill:#cccccc" />
<path
   id="la"
   d="M735.47,262.93l-2.42,1.23l-2.01,5.86l3.36,4.28l-0.56,4.73l0.56,0.23l5.59-2.71l7.5,8.38l-0.18,5.28l1.63,0.88l4.03-3.27l-0.33-2.59l-11.63-11.05l0.11-1.69l1.45-1.01l-1.01-2.82l-4.81-0.79L735.47,262.93L735.47,262.93z"
   style="fill:#cccccc"
   inkscape:label="#path8165" />
<path
   id="vn"
   d="M745.06,304.45l1.19,1.87l0.22,2.14l3.13,0.34l3.8-5.07l3.58-1.01l1.9-5.18l-0.89-8.34l-3.69-5.07l-3.89-3.11l-4.95-8.5l3.55-5.94l-5.08-5.83l-4.07-0.18l-3.66,1.97l1.09,4.71l4.88,0.86l1.31,3.63l-1.72,1.12l0.11,0.9l11.45,11.2l0.45,3.29l-0.69,10.4L745.06,304.45L745.06,304.45z"
   style="fill:#cccccc"
   inkscape:label="#path8167" />
<path
   id="ge"
   d="M555.46,204.16l3.27,4.27l4.08,1.88l2.51-0.01l4.31-1.17l1.08-1.69l-12.75-4.77L555.46,204.16L555.46,204.16z"
   style="fill:#cccccc"
   inkscape:label="#path8928" />
<path
   id="am"
   d="M569.72,209.89l4.8,6.26l-1.41,1.65l-3.4-0.59l-4.22-3.78l0.23-2.48L569.72,209.89L569.72,209.89z"
   style="fill:#cccccc"
   inkscape:label="#path8930" />
<path
   id="az"
   d="M571.41,207.72l-1.01,1.72l4.71,6.18l1.64-0.53l2.7,2.83l1.17-4.96l2.93,0.47l-0.12-1.42l-4.82-4.22l-0.92,2.48L571.41,207.72L571.41,207.72z"
   style="fill:#cccccc"
   inkscape:label="#path8932" />
<path
   id="ir"
   d="M569.65,217.95l-1.22,1.27l0.12,2.01l1.52,2.13l5.39,5.9l-0.82,2.36h-0.94l-0.47,2.36l3.05,3.9l2.81,0.24l5.63,7.79l3.16,0.24l2.46,1.77l0.12,3.54l9.73,5.67h3.63l2.23-1.89l2.81-0.12l1.64,3.78l10.51,1.46l0.31-3.86l3.48-1.26l0.16-1.38l-2.77-3.78l-6.17-4.96l3.24-2.95l-0.23-1.3l-4.06-0.63l-1.72-13.7l-0.2-3.15l-11.01-4.21l-4.88,1.1l-2.73,3.35l-2.42-0.16l-0.7,0.59l-5.39-0.35l-6.8-4.96l-2.53-2.77l-1.16,0.28l-2.09,2.39L569.65,217.95L569.65,217.95z"
   inkscape:label="#path8934"
   style="fill:#cccccc" />
<path
   id="tu"
   d="M558.7,209.19l-2.23,2.36l-8.2-0.24l-4.92-2.95l-4.8-0.12l-5.51,3.9l-5.16,0.24l-0.47,2.95h-5.86l-2.34,2.13v1.18l1.41,1.18v1.3l-0.59,1.54l0.59,1.3l1.88-0.94l1.88,2.01l-0.47,1.42l-0.7,0.95l1.05,1.18l5.16,1.06l3.63-1.54v-2.24l1.76,0.35l4.22,2.48l4.57-0.71l1.99-1.89l1.29,0.47v2.13h1.76l1.52-2.95l13.36-1.42l5.83-0.71l-1.54-2.02l-0.03-2.73l1.17-1.4l-4.26-3.42l0.23-2.95h-2.34L558.7,209.19L558.7,209.19z"
   inkscape:label="#path8936"
   style="fill:#cccccc" />
<path
   id="ye"
   d="M571.99,289.23l1.44,4.28v4.18l3.46,3.14l24.38-9.93l0.23-2.73l-3.91-7.02l-9.81,3.13l-5.63,5.54l-6.53-3.86L571.99,289.23L571.99,289.23z"
   inkscape:label="#path1705"
   style="fill:#cccccc" />
<path
   id="om"
   d="M598.38,280.84l7.39-4.26l1.31-6.25l-1.62-0.93l0.67-6.7l1.41-0.82l1.51,2.37l8.99,4.7v2.61l-10.89,16.03l-5.01,0.17L598.38,280.84L598.38,280.84z"
   inkscape:label="#path10461"
   style="fill:#cccccc" />
<path
   id="ae"
   d="M594.01,264.94l0.87,3.48l9.86,0.87l0.69-7.14l1.9-1.04l0.52-2.61l-3.11,0.87l-3.46,5.23L594.01,264.94L594.01,264.94z"
   inkscape:label="#path10463"
   style="fill:#cccccc" />
<path
   id="path10465"
   d="M592.63,259.02l-0.52,4.01l1.54,1.17l1.4-0.13l0.52-5.05l-1.21-0.87L592.63,259.02L592.63,259.02z"
   style="fill:#cccccc" />
<path
   id="kw"
   d="M583.29,247.17l-2.25-1.22l-1.56,1.57l0.17,3.14l3.63,1.39L583.29,247.17L583.29,247.17z"
   inkscape:label="#path10467"
   style="fill:#cccccc" />
<path
   id="sa"
   d="M584,253.24l7.01,9.77l2.26,1.8l1.01,4.38l10.79,0.85l1.22,0.64l-1.21,5.4l-7.09,4.18l-10.37,3.14l-5.53,5.4l-6.57-3.83l-3.98,3.48L566,279.4l-3.8-1.74l-1.38-2.09v-4.53l-13.83-16.72l-0.52-2.96h3.98l4.84-4.18l0.17-2.09l-1.38-1.39l2.77-2.26l5.88,0.35l10.03,8.36l5.92-0.27l0.38,1.46L584,253.24L584,253.24z"
   inkscape:label="#path10469"
   style="fill:#cccccc" />
<path
   id="sy"
   d="M546.67,229.13l-0.35,2.54l2.82,1.18l-0.12,7.04l2.82-0.06l2.82-2.13l1.06-0.18l6.4-5.09l1.29-7.39l-12.79,1.3l-1.35,2.96L546.67,229.13L546.67,229.13z"
   inkscape:label="#path11229"
   style="fill:#cccccc" />
<path
   id="iq"
   d="M564.31,225.03l-1.56,7.71l-6.46,5.38l0.41,2.54l6.31,0.43l10.05,8.18l5.62-0.16l0.15-1.89l2.06-2.21l2.88,1.63l0.38-0.36l-5.57-7.41l-2.64-0.16l-3.51-4.51l0.7-3.32l1.07-0.14l0.37-1.47l-4.78-5.03L564.31,225.03L564.31,225.03z"
   inkscape:label="#path11231"
   style="fill:#cccccc" />
<path
   id="jo"
   d="M548.9,240.78l-2.46,8.58l-0.11,1.31h3.87l4.33-3.82l0.11-1.45l-1.77-1.81l3.17-2.63l-0.46-2.44l-0.87,0.2l-2.64,1.89L548.9,240.78L548.9,240.78z"
   inkscape:label="#path11233"
   style="fill:#cccccc" />
<path
   id="ps"
   d="M546.2,232.44l0.06,1.95l-0.82,2.96l2.82,0.24l0.18-4.2L546.2,232.44L546.2,232.44z"
   style="fill:#cccccc"
   inkscape:label="#path11235" />
<path
   id="il"
   d="M545.32,238.06l-1.58,5.03l2.05,6.03l2.35-8.81v-1.89L545.32,238.06L545.32,238.06z"
   inkscape:label="#path11237"
   style="fill:#cccccc" />
<path
   id="path11239"
   d="M543.21,229.84l1.23,0.89l-3.81,3.61l-1.82-0.06l-1.35-0.95l0.18-1.77l2.76-0.18L543.21,229.84L543.21,229.84z"
   style="fill:#cccccc" />
<path
   id="no"
   d="M515.46,102.14l2.02-1.48L517.3,99l-1.28-0.74l0.18-2.03h1.1v-1.11l-4.77-1.29l-7.15,0.74l-0.73,3.14L503,97.16l-1.1-1.85l-3.49,0.18L498.04,99l-1.65,0.74l-0.92-1.85l-7.34,5.91l1.47,1.66l-2.75,1.29l-6.24,12.38l-2.2,1.48l0.18,1.11l2.2,1.11l-0.55,2.4l-3.67-0.19l-1.1-1.29l-2.38,2.77l-1.47,1.11l-0.37,2.59l-1.28,0.74l-3.3,0.74l-1.65,5.18l1.1,8.5l1.28,3.88l1.47,1.48l3.3-0.18l4.77-4.62l1.83-3.14l0.55,4.62l3.12-5.54l0.18-15.53l2.54-1.6l0.76-8.57l7.7-11.09l3.67-1.29l1.65-2.03l5.5,1.29l2.75,1.66l0.92-4.62l4.59-2.77L515.46,102.14L515.46,102.14z"
   inkscape:label="Norway"
   style="fill:#cccccc" />
<path
   style="fill:#cccccc"
   d="M 444.8125 147.8125 L 440.78125 150.75 L 438.59375 158.15625 L 440.78125 157.96875 L 440.59375 162.21875 L 441.6875 163.5 L 445.375 163.6875 L 445.90625 169.40625 L 442.8125 169.78125 L 442.4375 172.75 L 440.0625 176.25 L 443.90625 176.625 L 444.8125 177.1875 L 437.46875 181.4375 L 440.0625 182.71875 L 447.75 179.21875 L 452.71875 179.75 L 455.28125 178.65625 L 456.375 177.15625 L 455.09375 176.4375 L 455.28125 175.5 L 457.125 174.40625 L 457.28125 172.375 L 456 170.15625 L 453.09375 169.03125 L 451.25 164.78125 L 448.875 160.15625 L 448.125 156.28125 L 449.25 154.8125 L 449.25 152.96875 L 445.03125 152.96875 L 444.28125 151.84375 L 446.125 149.09375 L 444.8125 147.8125 z M 438.40625 161.46875 L 435.125 161.84375 L 434.9375 164.8125 L 437.125 166.28125 L 439.53125 165.71875 L 440.4375 164.0625 L 438.40625 161.46875 z "
   id="uk" />

<path
   id="ie"
   d="M439.51,166.55l-0.91,6l-8.07,2.96h-2.57l-1.83-1.29v-1.11l4.04-2.59l-1.1-2.22l0.18-3.14l3.49,0.18l1.6-3.76l-0.21,3.34l2.71,2.15L439.51,166.55L439.51,166.55z"
   inkscape:label="#path1304"
   style="fill:#cccccc" />
<path
   style="fill:#cccccc"
   d="M 497.71875 104.59375 L 494.15625 105.84375 L 486.75 116.4375 L 486.125 125.375 L 483.53125 126.78125 L 483.25 142.375 L 479.5 148.6875 L 484.09375 155.71875 L 485.1875 161.28125 L 487.1875 161.28125 L 488.65625 158.125 L 492.875 156.65625 L 492.71875 148.6875 L 495.46875 146.3125 L 497.28125 143.53125 L 497.65625 141.5 L 492.875 138 L 492.71875 133.5625 L 495.46875 128.9375 L 497.46875 128.75 L 500.96875 123.9375 L 500.96875 120.4375 L 505.90625 116.90625 L 505.375 110.28125 L 503.34375 106.375 L 499.6875 106.375 L 497.71875 104.59375 z M 498.5 150.15625 L 496.375 151.84375 L 497.4375 154.28125 L 499.3125 152.46875 L 498.5 150.15625 z "
   id="se" />
<path
   id="fi"
   d="M506.79,116.94l2.07,0.91l1.28,2.4l-1.28,1.66l-6.42,7.02l-1.1,3.7l1.47,5.36l4.95,3.7l6.6-3.14l5.32-0.74l4.95-7.95l-3.67-8.69l-3.49-8.32l0.55-5.36l-2.2-0.37l-0.57-3.91l-2.96-4.83l-3.28,2.27l-1.29,5.27l-3.48-2.09l-4.84-1.18l-1.08,1.26l1.86,1.68l3.39-0.06l2.73,4.41L506.79,116.94L506.79,116.94z"
   style="fill:#cccccc"
   inkscape:label="#path1308" />
<path
   id="lv"
   d="M518.07,151.37l-6.85-1.11l0.15,3.83l6.35,3.88l2.6-0.76l-0.15-2.92L518.07,151.37L518.07,151.37z"
   style="fill:#cccccc"
   inkscape:label="#path2070" />


<path
   id="lt"
   d="M510.81,154.7l-2.15-0.05l-2.95,2.82h-2.5l0.15,3.53l-1.5,2.77l5.4,0.05l1.55-0.2l1.55,1.87l3.55-0.15l3.4-4.33l-0.2-2.57L510.81,154.7L510.81,154.7z"
   style="fill:#cccccc"
   inkscape:label="#path2076" />
<path
   id="path2836"
   d="M510.66,166.29l1.5,2.47l-0.6,1.97l0.1,1.56l0.55,1.87l3.1-1.76l3.85,0.1l2.7,1.11h6.85l2-4.79l1.2-1.81v-1.21l-4.3-6.05l-3.8-1.51l-3.1-0.35l-2.7,0.86l0.1,2.72l-3.75,4.74L510.66,166.29L510.66,166.29z"
   style="fill:#cccccc" />
<path
   id="pl"
   d="M511.46,174.76l0.85,1.56l0.2,1.66l-0.7,1.61l-1.6,3.08l-1.35,0.61l-1.75-0.76l-1.05,0.05l-2.55,0.96l-2.9-0.86l-4.7-3.33l-4.6-2.47l-1.85-2.82l-0.35-6.65l3.6-3.13l4.7-1.56l1.75-0.2l-0.7,1.41l0.45,0.55l7.91,0.15l1.7-0.05l2.8,4.29l-0.7,1.76l0.3,2.07L511.46,174.76L511.46,174.76z"
   inkscape:label="#path1745"
   style="fill:#cccccc" />
<path
   id="es"
   d="M448.36,205h-12.74l-2.57-1.16l-1.24,0.09l-1.5,3.12l0.53,3.21l4.87,0.45l0.62,2.05l-2.12,11.95l0.09,2.14l3.45,1.87l3.98,0.27l7.96-1.96l3.89-4.9l0.09-4.99l6.9-6.24l0.35-2.76l-6.28-0.09L448.36,205L448.36,205z"
   inkscape:label="#path4356"
   style="fill:#cccccc" />
<path
   id="pt"
   d="M430.93,211.24l-0.62,8.65l-1.77,1.6l0.18,0.98l1.24,2.05l-0.8,2.5l1.33,0.45l3.1-0.36l-0.18-2.5l2.03-11.59l-0.44-1.6L430.93,211.24L430.93,211.24z"
   inkscape:label="#path4358"
   style="fill:#cccccc" />
<path
   id="path4360"
   d="M461.1,217.21l-1.59,0.54l0.35,1.43h2.3l0.97-1.07L461.1,217.21L461.1,217.21z"
   style="fill:#cccccc" />
<path
   style="fill:#cccccc"
   d="M 482.84375 192.625 L 480.40625 193.3125 L 478.09375 196.53125 L 476.71875 197.4375 L 474.5625 196.125 L 472.28125 196.96875 L 471.65625 198.5625 L 471.8125 200.25 L 474.21875 203.0625 L 477.96875 202.90625 L 486.28125 212.5625 L 491.4375 214.0625 L 494.5 216.9375 L 495.25 223.53125 L 496.875 222.59375 L 498.3125 219 L 497.9375 216.40625 L 500.375 216.1875 L 500.71875 214.71875 L 493.875 211.4375 L 487.375 205.0625 L 484.78125 201.25 L 484.15625 197.625 L 487.46875 196.8125 L 486.625 194.4375 L 484.59375 192.71875 L 482.84375 192.625 z M 477.84375 206.96875 L 475.875 208.90625 L 475.6875 210.6875 L 477.28125 211.6875 L 477.90625 211.59375 L 478.25 209 L 477.84375 206.96875 z M 477.5625 213.375 L 474.90625 214.71875 L 475.25 219.875 L 477.375 220.25 L 478.96875 218.71875 L 478.96875 213.84375 L 477.5625 213.375 z M 491 222.25 L 486.03125 223.03125 L 486.21875 224.375 L 490.65625 226.59375 L 491.34375 227.34375 L 492.5 227.5 L 492.4375 223.03125 L 491 222.25 z M 492.625 230.46875 L 490.9375 230.8125 L 491 232.65625 L 492.5 233.15625 L 493.15625 232.59375 L 492.625 230.46875 z "
   id="it"
   inkscape:label="#path4362" />

<path
   id="fr"
   d="M460.4,178.7l-2.21,0.54l-4.42,4.81l-1.33,0.09l-1.77-1.25l-1.15,0.27l-0.88,2.76l-6.46,0.18l0.18,1.43l4.42,2.94l5.13,4.1l-0.09,4.9l-2.74,4.81l5.93,2.85l6.02,0.18l1.86-2.14l3.8,0.09l1.06,0.98l3.8-0.27l1.95-2.5l-2.48-2.94l-0.18-1.87l0.53-2.05l-1.24-1.78l-2.12,0.62l-0.27-1.6l4.69-5.17v-3.12l-3.1-1.78l-1.59-0.27L460.4,178.7L460.4,178.7z"
   inkscape:label="#path4366"
   style="fill:#cccccc" />
<path
   id="nl"
   d="M470.09,168.27l-4.53,2.23l0.96,0.87l0.1,2.23l-0.96-0.19l-1.06-1.65l-2.53,4.01l3.89,0.81l1.45,1.53l0.77,0.02l0.51-3.46l2.45-1.03L470.09,168.27L470.09,168.27z"
   style="fill:#cccccc"
   inkscape:label="#path5126" />
<path
   id="be"
   d="M461.61,176.52l-0.64,1.6l6.88,4.54l1.98,0.47l0.07-2.15l-1.73-1.94h-1.06l-1.45-1.65L461.61,176.52L461.61,176.52z"
   inkscape:label="#path5128"
   style="fill:#cccccc" />
<path
   id="de"
   d="M471.14,167.88l3.57-0.58v-2.52l2.99-0.49l1.64,1.65l1.73,0.19l2.7-1.17l2.41,0.68l2.12,1.84l0.29,6.89l2.12,2.82l-2.79,0.39l-4.63,2.91l0.39,0.97l4.14,3.88l-0.29,1.94l-3.85,1.94l-3.57,0.1l-0.87,1.84h-1.83l-0.87-1.94l-3.18-0.78l-0.1-3.2l-2.7-1.84l0.29-2.33l-1.83-2.52l0.48-3.3l2.5-1.17L471.14,167.88L471.14,167.88z"
   inkscape:label="#path5130"
   style="fill:#cccccc" />
<path
   style="fill:#cccccc"
   d="M 476.78125 151.5 L 472.625 156.09375 L 472.46875 159.09375 L 474.375 164 L 477.3125 163.4375 L 476.9375 159.40625 L 479 157.125 L 478.9375 155.34375 L 477.5 151.625 L 476.78125 151.5 z M 480.5 159.59375 L 479.28125 160.71875 L 479.4375 162.46875 L 482.34375 162.5625 L 482.46875 160.5625 L 481.4375 159.625 L 480.5 159.59375 z "
   id="da" />


<path
   id="ch"
   d="M472.91,189.38l-4.36,4.64l0.09,0.47l1.79-0.56l1.61,2.24l2.72-0.96l1.88,1.46l0.77-0.44l2.32-3.64l-0.59-0.56l-2.29-0.06l-1.11-2.27L472.91,189.38L472.91,189.38z"
   inkscape:label="#path6654"
   style="fill:#cccccc" />
<path
   id="cz"
   d="M488.43,184.87h2.97h1.46l2.37,1.69l4.39-3.65l-4.26-3.04l-4.22-2.04l-2.89,0.52l-3.92,2.52L488.43,184.87L488.43,184.87z"
   inkscape:label="#path7414"
   style="fill:#cccccc" />
<path
   id="sk"
   d="M495.84,187.13l0.69,0.61l0.09,1.04l7.63-0.17l5.64-2.43l-0.09-2.47l-1.08,0.48l-1.55-0.83l-0.95-0.04l-2.5,1l-3.4-0.82L495.84,187.13L495.84,187.13z"
   style="fill:#cccccc"
   inkscape:label="#path8174" />
<path
   id="at"
   d="M480.63,190.12l-0.65,1.35l0.56,0.96l2.33-0.48h1.98l2.15,1.82l4.57-0.83l3.36-2l0.86-1.35l-0.13-1.74l-3.02-2.26l-4.05,0.04l-0.34,2.3l-4.26,2.08L480.63,190.12L480.63,190.12z"
   inkscape:label="#path1762"
   style="fill:#cccccc" />
<path
   id="hu"
   d="M496.74,189.6l-1.16,1.82l0.09,2.78l1.85,0.95l5.69,0.17l7.93-6.68l0.04-1.48l-0.86-0.43l-5.73,2.6L496.74,189.6L496.74,189.6z"
   inkscape:label="#path9694"
   style="fill:#cccccc" />
<path
   id="path10454"
   d="M494.8,191.99l-2.54,1.52l-4.74,1.04l0.95,2.74l3.32,0.04l3.06-2.56L494.8,191.99L494.8,191.99z"
   style="fill:#cccccc" />
<path
   id="path11214"
   d="M495.62,195.16l-3.53,2.91h-3.58l-0.43,2.52l1.64,0.43l0.82-1.22l1.29,1.13l1.03,3.6l7.07,3.3l0.7-0.8l-7.17-7.4l0.73-1.35l6.81-0.26l0.69-2.17l-4.44,0.13L495.62,195.16L495.62,195.16z"
   style="fill:#cccccc" />
<path
   id="path11974"
   d="M494.8,198.94l-0.37,0.61l6.71,6.92l2.46-3.62l-0.09-1.43l-2.15-2.61L494.8,198.94L494.8,198.94z"
   style="fill:#cccccc" />



<path
   id="ua"
   d="M515.57,173.15l-2.9,1.63l0.72,3.08l-2.68,5.65l0.02,2.49l1.26,0.8l8.08,0.4l2.26-1.87l2.42,0.81l3.47,4.63l-2.54,4.56l3.02,0.88l3.95-4.55l2.26,0.41l2.1,1.46l-1.85,2.44l2.5,3.9h2.66l1.37-2.6l2.82-0.57l0.08-2.11l-5.24-0.81l0.16-2.27h5.08l5.48-4.39l2.42-2.11l0.4-6.66l-10.8-0.97l-4.43-6.25l-3.06-1.05l-3.71,0.16l-1.67,4.13l-7.6,0.1l-2.47-1.14L515.57,173.15L515.57,173.15z"
   inkscape:label="#path14256"
   style="fill:#cccccc" />
<path
   id="path15016"
   d="M520.75,187.71l3.1,4.77l-0.26,2.7l1.11,0.05l2.63-4.45l-3.16-3.92l-1.79-0.74L520.75,187.71L520.75,187.71z"
   style="fill:#cccccc" />
<path
   id="md"
   d="M512.18,187.6l-0.26,1.48l-5.79,4.82l4.84,7.1l3.1,2.17h5.58l1.84-1.54l2.47-0.32l1.84,1.11l3.26-3.71l-0.63-1.86l-3.31-0.85l-2.26-0.11l0.11-3.18l-3-4.72L512.18,187.6L512.18,187.6z"
   inkscape:label="#path15776"
   style="fill:#cccccc" />
<path
   id="rs"
   d="M505.55,194.54l-2.05,1.54h-1l-0.68,2.12l2.42,2.81l0.16,2.23l-3,4.24l0.42,1.27l1.74,0.32l1.37-1.86l0.74-0.05l1.26,1.22l3.84-1.17l-0.32-5.46L505.55,194.54L505.55,194.54z"
   inkscape:label="#path16536"
   style="fill:#cccccc" />
<path
   id="path17296"
   d="M511.44,202.39l0.16,4.98l1.68,3.5l6.31,0.11l2.84-2.01l2.79-1.11l-0.68-3.18l0.63-1.7l-1.42-0.74l-1.95,0.16l-1.53,1.54l-6.42,0.05L511.44,202.39L511.44,202.39z"
   style="fill:#cccccc" />
<path
   id="al"
   d="M504.02,209.76v4.61l1.32,2.49l0.95-0.11l1.63-2.97l-0.95-1.33l-0.37-3.29l-1.26-1.17L504.02,209.76L504.02,209.76z"
   style="fill:#cccccc"
   inkscape:label="#path18056" />
<path
   id="mk"
   d="M510.92,208.01l-3.37,1.11l0.16,2.86l0.79,1.01l4-1.86L510.92,208.01L510.92,208.01z"
   style="fill:#cccccc"
   inkscape:label="#path18816" />
<path
   id="gr"
   d="M506.71,217.6l-0.11,1.33l4.63,2.33l2.21,0.85l-1.16,1.22l-2.58,0.26l-0.37,1.17l0.89,2.01l2.89,1.54l1.26,0.11l0.16-3.45l1.89-2.28l-5.16-6.1l0.68-2.07l1.21-0.05l1.84,1.48l1.16-0.58l0.37-2.07l5.42,0.05l0.21-3.18l-2.26,1.59l-6.63-0.16l-4.31,2.23L506.71,217.6L506.71,217.6z"
   inkscape:label="#path19576"
   style="fill:#cccccc" />
<path
   id="path20336"
   d="M523.02,209.7l-0.16,3.55l3.1-0.95l1.42-0.95l-0.42-1.54l-1.47-1.17L523.02,209.7L523.02,209.7z"
   style="fill:#cccccc" />
<path
   id="path21096"
   d="M516.76,230.59l1.63,0.05l0.68,1.01h2.37l1.58-0.58l0.53,0.64l-1.05,1.38l-4.63,0.16l-0.84-1.11l-0.89-0.53L516.76,230.59L516.76,230.59z"
   style="fill:#cccccc" />
</svg>